<svg width="56" height="56" viewBox="0 0 56 56" fill="none" xmlns="http://www.w3.org/2000/svg">
<path d="M37.913 4.9729H18.6864C10.335 4.9729 5.35632 9.95162 5.35632 18.303V37.5067C5.35632 45.881 10.335 50.8597 18.6864 50.8597H37.8901C46.2415 50.8597 51.2202 45.881 51.2202 37.5296V18.303C51.2431 9.95162 46.2644 4.9729 37.913 4.9729ZM18.2735 42.0265C18.2735 42.9672 17.4934 43.7473 16.5527 43.7473C15.612 43.7473 14.832 42.9672 14.832 42.0265V37.2772C14.832 36.3365 15.612 35.5565 16.5527 35.5565C17.4934 35.5565 18.2735 36.3365 18.2735 37.2772V42.0265ZM30.0205 42.0265C30.0205 42.9672 29.2404 43.7473 28.2997 43.7473C27.359 43.7473 26.579 42.9672 26.579 42.0265V32.505C26.579 31.5643 27.359 30.7842 28.2997 30.7842C29.2404 30.7842 30.0205 31.5643 30.0205 32.505V42.0265ZM41.7675 42.0265C41.7675 42.9672 40.9874 43.7473 40.0468 43.7473C39.1061 43.7473 38.326 42.9672 38.326 42.0265V27.7557C38.326 26.815 39.1061 26.0349 40.0468 26.0349C40.9874 26.0349 41.7675 26.815 41.7675 27.7557V42.0265ZM41.7675 20.5056C41.7675 21.4463 40.9874 22.2263 40.0468 22.2263C39.1061 22.2263 38.326 21.4463 38.326 20.5056V18.2801C32.4754 24.2912 25.1565 28.5358 16.9657 30.5777C16.828 30.6236 16.6904 30.6236 16.5527 30.6236C15.7726 30.6236 15.0843 30.0959 14.8778 29.3159C14.6484 28.3981 15.199 27.4574 16.1397 27.228C23.8717 25.3008 30.7547 21.2398 36.2152 15.5039H33.3473C32.4066 15.5039 31.6265 14.7238 31.6265 13.7832C31.6265 12.8425 32.4066 12.0624 33.3473 12.0624H40.0697C40.1615 12.0624 40.2303 12.1083 40.3221 12.1083C40.4368 12.1312 40.5515 12.1312 40.6662 12.1771C40.7809 12.223 40.8727 12.2918 40.9874 12.3607C41.0563 12.4066 41.1251 12.4295 41.1939 12.4754C41.2169 12.4983 41.2169 12.5213 41.2398 12.5213C41.3316 12.6131 41.4004 12.7048 41.4692 12.7966C41.5381 12.8884 41.6069 12.9572 41.6298 13.049C41.6757 13.1408 41.6757 13.2325 41.6987 13.3472C41.7216 13.462 41.7675 13.5767 41.7675 13.7143C41.7675 13.7373 41.7905 13.7602 41.7905 13.7832V20.5056H41.7675Z" fill="#015363"/>
</svg>
