<svg width="73" height="70" viewBox="0 0 73 70" fill="none" xmlns="http://www.w3.org/2000/svg">
<path d="M49.2836 13.2762L49.2836 13.2763L48.7563 20.9613C48.3429 26.9752 50.5772 32.8644 54.8751 37.0901L60.3663 42.4902C62.0456 44.142 60.7639 46.9895 58.4149 46.8274L58.4149 46.8274L50.7298 46.3L50.7297 46.3C44.7192 45.8932 38.8269 48.1274 34.6011 52.4188L34.601 52.4189L29.201 57.9101C27.5492 59.5894 24.7017 58.3077 24.8638 55.9587L24.8638 55.9586L25.3911 48.2736L25.3911 48.2734C25.7979 42.263 23.5637 36.3706 19.2724 32.1449L19.2723 32.1448L13.7811 26.7448C12.1018 25.093 13.3835 22.2455 15.7325 22.4076L15.7325 22.4076L23.4176 22.9349C23.4176 22.9349 23.4176 22.9349 23.4176 22.9349C29.4314 23.3483 35.3206 21.114 39.5464 16.816L44.9464 11.3249C46.5982 9.64553 49.4457 10.9273 49.2836 13.2762ZM31.4979 46.6525L31.5008 47.0064L31.7676 46.7739C36.5785 42.5809 42.7223 40.2483 49.1055 40.1965L49.4599 40.1937L49.2268 39.9267C45.0274 35.1192 42.698 28.9755 42.6495 22.5922L42.6468 22.2378L42.3798 22.4709C37.5722 26.667 31.4285 28.9964 25.0452 29.0449L24.6911 29.0476L24.9238 29.3146C29.1167 34.1255 31.4461 40.2692 31.4979 46.6525Z" fill="white" stroke="white" stroke-width="0.3255"/>
<path d="M32.3118 66.5624L32.3095 66.5601C30.8541 65.1047 30.8541 62.7449 32.3095 61.2894L40.0614 53.5375C41.5169 52.082 43.8767 52.082 45.3322 53.5375L45.3345 53.5398C46.79 54.9953 46.79 57.3551 45.3345 58.8105L37.5826 66.5624C36.1271 68.0179 33.7673 68.0179 32.3118 66.5624Z" fill="white" stroke="white" stroke-width="0.3255"/>
<path d="M69.2229 39.5282L69.2206 39.5305C67.7651 40.986 65.4053 40.986 63.9499 39.5305L56.198 31.7786C54.7425 30.3231 54.7425 27.9633 56.198 26.5078L56.2003 26.5055C57.6557 25.0501 60.0155 25.0501 61.471 26.5055L69.2229 34.2574C70.6784 35.7129 70.6784 38.0727 69.2229 39.5282Z" fill="white" stroke="white" stroke-width="0.3255"/>
<path d="M28.1618 16.2123L28.1595 16.21C26.704 14.7546 26.704 12.3948 28.1595 10.9393L35.9114 3.18739C37.3669 1.73192 39.7267 1.73192 41.1822 3.1874L41.1845 3.1897C42.6399 4.64517 42.6399 7.00496 41.1845 8.46044L33.4326 16.2123C31.9771 17.6678 29.6173 17.6678 28.1618 16.2123Z" fill="white" stroke="white" stroke-width="0.3255"/>
<path d="M15.8904 40.7596L15.8881 40.7619C14.4327 42.2174 12.0729 42.2174 10.6174 40.7619L2.86549 33.01C1.41002 31.5546 1.41002 29.1948 2.86549 27.7393L2.86779 27.737C4.32327 26.2815 6.68306 26.2815 8.13854 27.737L15.8904 35.4889C17.3459 36.9444 17.3459 39.3042 15.8904 40.7596Z" fill="white" stroke="white" stroke-width="0.3255"/>
</svg>
