<svg width="428" height="185" viewBox="0 0 428 185" fill="none" xmlns="http://www.w3.org/2000/svg">
<path d="M351.469 73.8924L307.402 42.1055C304.652 40.1228 300.814 40.6984 298.832 43.4486C297.041 45.879 297.361 49.2687 299.471 51.3793L329.34 81.0556L298.576 106.447C295.954 108.621 295.634 112.459 297.808 115.081C299.727 117.383 302.989 117.959 305.547 116.488L350.637 90.2655C351.853 89.562 352.876 88.6666 353.643 87.5153C356.841 83.1662 355.882 77.0903 351.469 73.8924Z" fill="#36B8A0"/>
<path d="M422.079 117.319L376.605 90.457C374.942 89.4976 373.023 88.986 371.168 89.1139C365.732 89.3697 362.598 92.7595 362.598 98.5796C362.598 118.598 362.662 158.252 362.662 178.654C362.79 181.788 365.22 184.347 368.354 184.475C371.744 184.666 374.622 182.108 374.878 178.782L381.082 114.441L416.77 128.32C419.904 129.535 423.486 128 424.701 124.866C425.788 122.052 424.701 118.854 422.079 117.319Z" fill="#015363"/>
<path d="M427.323 44.0236C426.427 40.7617 423.037 38.843 419.776 39.7384L380.825 50.4833L374.813 5.1374C374.238 1.81161 371.04 -0.426901 367.714 0.148717C364.772 0.660377 362.598 3.21868 362.662 6.22468C362.789 20.807 362.662 49.9716 362.662 64.5539C362.662 72.4847 370.72 75.6186 375.645 73.3801L423.933 51.1868C426.683 49.9077 428.09 46.9017 427.323 44.0236Z" fill="#3C7FCC"/>
<path d="M3.66726 47.1576H5.84181C6.03368 47.1576 6.22555 47.0937 6.41743 46.9658C6.54534 46.8378 6.67326 46.646 6.67326 46.4541V43.9598C6.67326 43.7679 6.6093 43.576 6.41743 43.4481C6.28951 43.3202 6.03368 43.2562 5.84181 43.2562H3.66726C3.47538 43.2562 3.28351 43.3202 3.09164 43.4481C2.96372 43.576 2.83581 43.7679 2.89976 43.9598V46.4541C2.89976 46.646 2.96372 46.8378 3.09164 46.9658C3.21955 47.0937 3.41143 47.1576 3.66726 47.1576Z" fill="#015363"/>
<path d="M2.38796 64.0427C2.96358 64.6183 3.66711 65.0021 4.49856 65.1939C5.33001 65.4498 6.16146 65.5777 7.05686 65.5777H7.50457C8.27206 65.5777 8.97559 65.4498 9.74308 65.2579C10.3827 65.066 10.9583 64.7462 11.4699 64.2985C11.8537 64.9381 12.4293 65.4498 13.0689 65.7056C13.9643 66.0254 14.8597 66.1533 15.819 66.1533H17.9296C18.2494 66.1533 18.6332 66.1533 19.0809 66.0893C19.4646 66.0893 19.9123 66.0254 20.2961 65.8975C20.6798 65.8335 21.0636 65.7056 21.4473 65.5777C21.8311 65.4498 22.1508 65.2579 22.4706 65.066C23.1102 65.5137 23.8137 65.8335 24.5812 65.9614C25.4127 66.0893 26.2441 66.1533 27.0756 66.1533H28.0989C28.8024 66.1533 29.506 66.0894 30.2095 65.8975C30.8491 65.7696 31.4247 65.4498 31.8724 65.0021C32.512 65.7056 33.2794 66.1533 34.1749 66.4091C35.1982 66.7289 36.2855 66.8568 37.3727 66.8568C38.3961 66.8568 39.3554 66.7289 40.3148 66.4091C41.1462 66.1533 41.8498 65.6416 42.4893 65.0021C43.065 65.3858 43.7045 65.7056 44.4081 65.8335C45.1116 66.0254 45.8151 66.0893 46.5826 66.0893H47.8618C48.1815 66.0893 48.5653 66.0894 48.949 66.0254C49.3328 66.0254 49.7805 65.9614 50.1642 65.8335C50.548 65.7696 50.9317 65.6416 51.3155 65.5137C51.6992 65.3858 52.019 65.1939 52.3388 65.0021C52.9784 65.4498 53.6819 65.7696 54.4494 65.8975C55.2808 66.0254 56.1123 66.0893 56.9437 66.0893H57.9671C58.2868 66.0893 58.6706 66.0894 59.1183 66.0254C59.502 66.0254 59.9497 65.9614 60.3335 65.8335C60.7172 65.7696 61.101 65.6416 61.4847 65.5137C61.8685 65.3858 62.1883 65.1939 62.508 65.0021C63.1476 65.4498 63.8512 65.7696 64.6186 65.8975C65.4501 66.0254 66.2815 66.0893 67.113 66.0893H68.7119H70.119C70.6306 66.0893 71.1423 66.0894 71.654 66.0254C72.1656 65.9614 72.6133 65.9614 72.9971 65.8975C73.3169 65.8975 73.6367 65.8335 73.9564 65.7696C74.1483 65.7056 74.3402 65.5777 74.4681 65.3858C74.596 65.1939 74.66 65.066 74.66 64.8102C74.7239 64.2346 74.7879 63.595 74.7879 62.8915C74.7879 62.1879 74.7879 61.5484 74.7879 60.9727V42.1692C74.7879 41.9774 74.7239 41.7855 74.596 41.6576C74.4681 41.5297 74.3402 41.4657 74.1483 41.4657H71.2063C71.0144 41.4657 70.8865 41.5297 70.7586 41.6576C70.6306 41.7855 70.5667 41.9774 70.5667 42.1692V60.8448C70.5667 61.3565 70.5027 61.6763 70.3109 61.7402C69.9911 61.8682 69.6713 61.9321 69.2875 61.8682H66.5374H66.0257C65.8338 61.8682 65.578 61.8042 65.3861 61.8042C65.1943 61.7402 65.0024 61.6763 64.8105 61.6123C64.6826 61.5484 64.5547 61.4844 64.4268 61.3565V52.7222C64.4268 52.3385 64.1709 52.0827 63.7872 52.0827H60.9731C60.7812 52.0827 60.6533 52.1466 60.5254 52.2745C60.3974 52.4024 60.3335 52.5304 60.3335 52.7222V60.7809C60.3335 60.9728 60.2695 61.2286 60.1416 61.3565C60.0137 61.4844 59.8218 61.6123 59.6939 61.6763C59.502 61.7402 59.3102 61.8042 59.1183 61.8042C58.9264 61.8042 58.6706 61.8042 58.4787 61.8042H56.496H55.9844C55.7925 61.8042 55.5367 61.7402 55.3448 61.7402C55.1529 61.6763 54.9611 61.6123 54.7692 61.5484C54.6413 61.4844 54.5134 61.4204 54.3854 61.2925V52.7222C54.3854 52.5304 54.3215 52.4024 54.1936 52.2745C54.0656 52.1466 53.9377 52.0827 53.7459 52.0827H50.8038C50.6119 52.0827 50.484 52.1466 50.3561 52.2745C50.2282 52.4024 50.1642 52.5304 50.1642 52.7222V60.7809C50.1642 60.9728 50.1003 61.2286 49.9724 61.3565C49.8444 61.4844 49.6526 61.6123 49.5247 61.6763C49.3328 61.7402 49.1409 61.8042 48.949 61.8042C48.7572 61.8042 48.5013 61.8042 48.3095 61.8042H46.3268C46.1349 61.8042 46.007 61.8042 45.8151 61.7402C45.6232 61.7402 45.3674 61.6763 45.1755 61.6123C44.9837 61.5484 44.7918 61.4844 44.6639 61.3565C44.472 61.2286 44.4081 61.0367 44.3441 60.8448C44.4081 60.653 44.4081 60.3971 44.4081 60.2053V57.647C44.4081 55.2805 43.7685 53.4897 42.4893 52.2745C41.0823 50.9954 39.1635 50.3558 37.3088 50.4837C35.39 50.3558 33.4713 51.0593 32.0003 52.3385C30.7212 53.5537 30.0176 55.3445 30.0176 57.7109V60.3971C30.0176 60.653 30.0176 60.9088 29.9537 61.1007C29.8897 61.2925 29.8257 61.4205 29.6978 61.5484C29.5699 61.6763 29.378 61.7402 29.2501 61.8042C29.0583 61.8682 28.8664 61.8682 28.6745 61.8682H28.1629H26.5H25.9883C25.7964 61.8682 25.5406 61.8682 25.3487 61.8042C25.1568 61.7402 24.965 61.6763 24.7731 61.6123C24.6452 61.5484 24.5173 61.4844 24.3894 61.3565V52.7862C24.3894 52.4024 24.1335 52.1466 23.7498 52.1466H20.9996C20.8077 52.1466 20.6798 52.2106 20.5519 52.3385C20.424 52.4664 20.36 52.5943 20.36 52.7862V60.8448C20.36 61.0367 20.2961 61.2925 20.1682 61.4205C20.0402 61.5484 19.8484 61.6763 19.7204 61.7402C19.5286 61.8042 19.3367 61.8682 19.1448 61.8682C18.953 61.8682 18.7611 61.8682 18.5053 61.8682H16.3947C15.883 61.9321 15.3074 61.8042 14.8597 61.5484C14.5399 61.3565 14.348 60.8448 14.348 60.1413V51.3152C14.348 51.1872 14.348 51.0593 14.2201 50.9314C14.0922 50.8035 13.9643 50.7395 13.7724 50.7395C13.0689 50.5477 12.4293 50.4198 11.7258 50.3558C10.8304 50.2918 9.9989 50.2279 9.16746 50.2279C6.35333 50.2279 4.17878 50.9314 2.70775 52.3385C1.23673 53.7455 0.469238 55.7282 0.469238 58.2865V58.9261C0.469238 59.9494 0.59715 60.9727 0.980896 61.9321C1.23673 62.6996 1.74839 63.4031 2.38796 64.0427ZM34.0469 57.9667C33.983 56.9434 34.2388 55.9841 34.8144 55.1526C35.454 54.513 36.2854 54.1932 37.1809 54.2572C38.0763 54.1932 38.9717 54.513 39.5473 55.1526C40.1229 55.9841 40.3787 57.0074 40.2508 57.9667V59.3738C40.3148 60.3332 40.0589 61.2925 39.4833 62.124C38.8438 62.7636 38.0123 63.0833 37.1169 62.9554C36.4134 62.9554 35.7098 62.8275 35.1342 62.4438C34.5586 62.06 34.2388 61.4205 34.1109 60.7809C34.0469 60.3332 33.983 59.8215 34.0469 59.3099V57.9667ZM4.49856 57.7109C4.4346 56.6876 4.81835 55.6003 5.58584 54.8968C6.48125 54.2572 7.56853 53.9374 8.6558 54.0014H9.48724C9.74307 54.0014 9.99891 54.0014 10.1908 54.0653V60.0773C10.1908 60.525 9.93495 60.9727 9.55121 61.1646C9.03955 61.4204 8.39997 61.5484 7.82435 61.5484H7.31269C6.5452 61.6123 5.71375 61.3565 5.13813 60.7809C4.56252 60.0134 4.37065 59.118 4.4346 58.1586V57.7109H4.49856Z" fill="#015363"/>
<path d="M9.61618 47.1576H11.8547C12.0466 47.1576 12.2384 47.0937 12.3663 46.9658C12.4943 46.8378 12.5582 46.646 12.5582 46.4541V43.9597C12.5582 43.576 12.2384 43.2562 11.8547 43.1923C11.8547 43.1923 11.8547 43.1923 11.7907 43.1923H9.55222C9.36034 43.1923 9.16847 43.2562 9.04056 43.3841C8.84868 43.512 8.78473 43.7039 8.78473 43.8958V46.3901C8.78473 46.582 8.84868 46.7739 9.04056 46.9018C9.23243 47.0937 9.42431 47.1576 9.61618 47.1576Z" fill="#015363"/>
<path d="M17.8024 68.8394C17.6105 68.8394 17.4186 68.9033 17.2268 69.0312C17.0989 69.1591 16.9709 69.351 16.9709 69.5429V72.1012C16.9709 72.2931 17.0349 72.421 17.2268 72.5489C17.3547 72.6768 17.5466 72.7408 17.8024 72.7408H20.0409C20.2328 72.7408 20.4247 72.6768 20.6165 72.5489C20.7444 72.421 20.8724 72.2931 20.8724 72.1012V69.5429C20.8724 69.351 20.8084 69.1591 20.6165 69.0312C20.4886 68.9033 20.2328 68.8394 20.0409 68.8394H17.8024Z" fill="#015363"/>
<path d="M23.8142 68.8393C23.6224 68.8393 23.4305 68.9033 23.3026 69.0312C23.1107 69.1591 23.0468 69.351 23.0468 69.5429V72.1012C23.0468 72.2931 23.1107 72.4849 23.3026 72.5489C23.4305 72.6768 23.6224 72.7408 23.8142 72.7408H26.0528C26.2446 72.7408 26.4365 72.6768 26.5644 72.5489C26.6923 72.421 26.7563 72.2291 26.7563 72.1012V69.5429C26.7563 69.1591 26.4365 68.8393 26.0528 68.7754C26.0528 68.7754 26.0528 68.7754 25.9888 68.7754H23.8142V68.8393Z" fill="#015363"/>
<path d="M50.932 48.565H53.4264C53.6182 48.565 53.8101 48.501 53.938 48.3731C54.0659 48.2452 54.1299 48.0533 54.1299 47.8614V45.3671C54.1299 45.1752 54.0659 44.9834 53.938 44.7915C53.8101 44.6636 53.6182 44.5996 53.4264 44.5996H50.8681C50.6762 44.5996 50.4843 44.6636 50.2924 44.7915C50.1645 44.9194 50.0366 45.1113 50.1006 45.3031V47.7975C50.1006 47.9894 50.1645 48.1812 50.2924 48.3091C50.4843 48.501 50.6762 48.565 50.932 48.565Z" fill="#015363"/>
<path d="M58.0952 48.5651H60.3337C60.5256 48.5651 60.7175 48.5012 60.9094 48.3732C61.1012 48.2453 61.1652 48.0534 61.1652 47.8616V45.3672C61.1652 45.1754 61.1012 44.9835 60.9094 44.8556C60.7815 44.7277 60.5256 44.6637 60.3337 44.6637H58.0952C57.9034 44.6637 57.7115 44.7277 57.5196 44.8556C57.3917 44.9835 57.2638 45.1754 57.2638 45.3672V47.8616C57.2638 48.0534 57.3277 48.2453 57.5196 48.3732C57.7115 48.5012 57.9034 48.5651 58.0952 48.5651Z" fill="#015363"/>
<path d="M64.1078 48.5651H66.3463C66.5382 48.5651 66.7301 48.5012 66.858 48.3732C66.9859 48.2453 67.0499 48.0534 67.0499 47.8616V45.3672C67.0499 45.1754 66.9859 44.9835 66.858 44.8556C66.7301 44.7277 66.5382 44.6637 66.3463 44.6637H64.1078C63.9159 44.6637 63.7241 44.7277 63.5962 44.8556C63.4043 44.9835 63.3403 45.1754 63.3403 45.3672V47.8616C63.3403 48.0534 63.4043 48.2453 63.5962 48.3732C63.6601 48.5012 63.852 48.5651 64.1078 48.5651Z" fill="#015363"/>
<path d="M192.407 73.6363C192.79 73.7003 193.11 73.7003 193.494 73.7003H194.453C195.604 73.7643 196.756 73.5724 197.779 73.1247C198.674 72.7409 199.378 72.0374 199.826 71.142C200.081 70.6303 200.273 70.1187 200.337 69.5431C200.465 68.8395 200.465 68.2 200.465 67.4964V65.9614H217.414C218.117 65.9614 218.757 65.9614 219.461 65.9614C220.164 65.9614 220.74 65.8975 221.315 65.8975C221.891 65.8975 222.339 65.8335 222.722 65.8335C223.106 65.8975 223.49 65.5777 223.49 65.1939C223.49 64.9381 223.554 64.6183 223.554 64.2346C223.554 63.8508 223.618 63.4671 223.618 63.0194C223.618 62.5717 223.618 62.1879 223.682 61.8042C223.682 61.4204 223.682 61.1007 223.682 60.8448V60.0134C223.682 58.6063 223.49 57.2632 223.106 55.9201C222.786 54.7689 222.211 53.7455 221.379 52.9141C220.484 52.0827 219.461 51.4431 218.245 51.1233C216.71 50.6756 215.175 50.4837 213.576 50.4837C213.129 50.4837 212.617 50.4837 212.042 50.5477L209.803 50.6756C209.803 50.4837 209.867 50.3558 209.931 50.2279C209.995 50.036 210.123 49.7802 210.187 49.5244C210.251 49.2685 210.443 49.0127 210.507 48.6929C210.57 48.3731 210.762 48.1812 210.89 47.9254L213.96 42.2332C214.024 42.1053 214.024 41.9774 214.024 41.8494C214.024 41.7215 214.024 41.6576 213.96 41.5936C213.832 41.5297 213.704 41.4657 213.64 41.4657H210.762C210.57 41.4657 210.379 41.5297 210.251 41.6576C210.123 41.7855 209.995 41.9134 209.867 42.1053L207.437 46.6463C207.117 47.2858 206.797 47.8615 206.541 48.3731C206.285 48.8848 206.03 49.3964 205.902 49.9081C205.71 50.4198 205.582 50.8675 205.518 51.3791C205.454 51.8908 205.39 52.4024 205.39 52.9141V53.106C205.39 53.2339 205.39 53.2978 205.39 53.4258C205.39 53.5537 205.39 53.6816 205.39 53.7456C205.39 53.8095 205.39 53.8735 205.39 54.0014C205.39 54.3212 205.646 54.513 206.157 54.513H213.065C213.96 54.513 214.856 54.577 215.751 54.7689C216.455 54.8968 217.158 55.1526 217.798 55.6003C218.373 55.9841 218.821 56.4957 219.077 57.1353C219.397 57.9028 219.525 58.6703 219.525 59.5017C219.525 59.8215 219.525 60.2053 219.525 60.589C219.525 60.9727 219.525 61.3565 219.461 61.7402C219.269 61.7402 219.013 61.8042 218.565 61.8042C218.117 61.8042 217.734 61.8042 217.286 61.8042H200.593V52.7222C200.593 52.3385 200.337 52.0827 199.954 52.0827H197.139C196.948 52.0827 196.82 52.1466 196.692 52.2745C196.564 52.4024 196.5 52.5304 196.5 52.7222V67.2406C196.5 67.7522 196.436 68.3279 196.308 68.8395C196.244 69.1593 195.988 69.4791 195.732 69.671C195.413 69.8628 195.093 69.9908 194.709 70.0547C194.197 70.1187 193.686 70.1187 193.174 70.1187H192.471C192.087 70.1187 191.895 70.3105 191.895 70.6303V72.9968C191.895 73.3165 192.087 73.5724 192.407 73.6363Z" fill="#015363"/>
<path d="M197.331 48.5651H199.826C200.017 48.5651 200.209 48.5012 200.337 48.3732C200.465 48.2453 200.529 48.0534 200.529 47.8616V45.3672C200.529 45.1754 200.465 44.9835 200.337 44.8556C200.209 44.7277 200.017 44.6637 199.826 44.6637H197.267C197.075 44.6637 196.883 44.7277 196.692 44.8556C196.564 44.9835 196.436 45.1754 196.436 45.3672V47.8616C196.436 48.0534 196.5 48.2453 196.628 48.3732C196.883 48.5012 197.075 48.5651 197.331 48.5651Z" fill="#015363"/>
<path d="M262.567 41.4657H259.625C259.434 41.4657 259.306 41.5297 259.178 41.6576C259.05 41.7855 258.986 41.9774 258.986 42.1692V60.8448C258.986 61.3565 258.922 61.6763 258.73 61.7402C258.41 61.8682 258.09 61.9321 257.707 61.8682H255.02C254.829 61.8682 254.701 61.8682 254.509 61.8042C254.317 61.8042 254.061 61.7402 253.869 61.6763C253.677 61.6123 253.486 61.4844 253.358 61.3565C253.166 61.2286 253.102 61.0367 253.038 60.8448C253.102 60.653 253.102 60.3971 253.102 60.2053V57.647C253.102 55.2805 252.462 53.4897 251.183 52.2745C249.776 50.9954 247.857 50.3558 246.002 50.4837C244.084 50.3558 242.165 51.0593 240.694 52.3385C239.351 53.5537 238.711 55.3445 238.711 57.7109V60.3971C238.711 60.653 238.711 60.9088 238.647 61.1646C238.583 61.3565 238.519 61.4844 238.392 61.6123C238.264 61.7402 238.072 61.8042 237.944 61.8682C237.752 61.9321 237.56 61.9321 237.368 61.9321H236.857H233.211V52.7862C233.211 52.4024 232.955 52.1466 232.571 52.1466H229.757C229.565 52.1466 229.437 52.2106 229.31 52.3385C229.182 52.4664 229.118 52.5943 229.118 52.7862V67.3045C229.118 67.8162 229.054 68.3918 228.926 68.9035C228.862 69.2233 228.606 69.5431 228.35 69.7349C228.03 69.9268 227.711 70.0547 227.327 70.1187C226.815 70.1826 226.304 70.1826 225.792 70.1826H225.088C224.705 70.1826 224.513 70.3745 224.513 70.6943V73.0607C224.449 73.3805 224.641 73.6363 224.96 73.7003C225.344 73.7643 225.664 73.7643 226.048 73.7643H227.007C228.158 73.8282 229.31 73.6363 230.333 73.1886C231.228 72.8049 231.932 72.1014 232.38 71.2059C232.635 70.6943 232.827 70.1826 232.891 69.607C233.019 68.9035 233.019 68.2639 233.019 67.5604V66.0254H236.601C237.304 66.0254 238.008 65.9614 238.711 65.7696C239.351 65.6416 239.927 65.3219 240.374 64.8742C241.014 65.5777 241.781 66.0254 242.677 66.2812C243.7 66.601 244.787 66.7289 245.875 66.7289C246.898 66.7289 247.857 66.601 248.817 66.2812C249.648 66.0254 250.352 65.5137 250.991 64.8742C251.567 65.2579 252.206 65.5777 252.91 65.7056C253.613 65.8975 254.317 65.9614 255.084 65.9614H256.939H258.346C258.858 65.9614 259.37 65.9614 259.881 65.8975C260.393 65.8335 260.841 65.8335 261.224 65.7696C261.544 65.7696 261.864 65.7056 262.184 65.6416C262.376 65.5777 262.567 65.4498 262.695 65.2579C262.823 65.066 262.887 64.9381 262.887 64.7462C262.951 64.1706 263.015 63.5311 263.015 62.8275C263.015 62.124 263.015 61.4844 263.015 60.9088V42.1053C263.015 41.9134 262.951 41.7215 262.823 41.5936C262.823 41.5297 262.695 41.4657 262.567 41.4657ZM249.008 59.3738C249.072 60.3332 248.817 61.2925 248.241 62.124C247.601 62.7636 246.77 63.0833 245.875 62.9554C245.171 62.9554 244.467 62.8275 243.892 62.4438C243.316 62.06 242.933 61.4205 242.805 60.7809C242.741 60.3332 242.677 59.8215 242.741 59.3099V57.9028C242.677 56.8795 242.933 55.9201 243.508 55.0887C244.148 54.4491 244.979 54.1293 245.875 54.1933C246.77 54.1293 247.665 54.4491 248.241 55.0887C248.817 55.9201 249.072 56.9434 248.945 57.9028L249.008 59.3738Z" fill="#015363"/>
<path d="M268.771 66.0254H271.65C271.841 66.0254 272.033 65.9614 272.097 65.8335C272.225 65.7056 272.289 65.5137 272.289 65.3858V42.1053C272.289 41.9134 272.225 41.7855 272.097 41.6576C271.969 41.5297 271.777 41.4657 271.65 41.4657H268.771C268.58 41.4657 268.452 41.5297 268.324 41.6576C268.196 41.7855 268.132 41.9134 268.132 42.1053V65.3858C268.132 65.5777 268.196 65.7056 268.324 65.8335C268.452 65.9614 268.58 66.0894 268.771 66.0254Z" fill="#015363"/>
<path d="M23.7503 95.0622V100.754C23.7503 101.458 23.8143 102.161 24.0701 102.801C24.262 103.313 24.5178 103.696 24.9016 104.08C25.2853 104.4 25.797 104.656 26.3086 104.72C26.9482 104.848 27.5878 104.912 28.2913 104.848H63.404H64.8111C65.3227 104.848 65.8344 104.848 66.3461 104.784C66.8577 104.72 67.2415 104.72 67.6892 104.656C68.0089 104.592 68.3287 104.592 68.6485 104.464C68.8404 104.4 69.0323 104.272 69.1602 104.08C69.2881 103.888 69.3521 103.696 69.3521 103.505C69.416 102.929 69.48 102.161 69.48 101.202C69.48 100.243 69.48 99.0915 69.48 97.7484V94.7424C69.48 94.2307 69.48 93.783 69.48 93.2074C69.48 92.6318 69.48 92.0562 69.416 91.3526C69.416 91.1608 69.3521 91.0328 69.2241 90.9049C69.0962 90.777 68.9044 90.7131 68.7125 90.7131H66.0263C65.8344 90.7131 65.7065 90.777 65.5786 90.9049C65.4507 91.0328 65.3867 91.1608 65.3867 91.3526C65.4507 92.8876 65.4506 94.3586 65.4506 95.7018V99.5392C65.4506 100.051 65.3867 100.371 65.1948 100.435C64.875 100.563 64.4913 100.626 64.1715 100.563H62.0609C61.933 100.563 61.7411 100.563 61.6772 100.499C61.5492 100.435 61.4213 100.307 61.3574 100.115C61.2934 99.9869 61.1655 99.795 61.1655 99.6671C61.1015 99.4752 60.9736 99.2194 60.8457 98.9636C60.7178 98.7077 60.6538 98.4519 60.5259 98.1961C60.398 97.9403 60.334 97.7484 60.2701 97.5565L59.8863 96.6611C59.3107 95.382 58.6072 94.1028 57.7757 93.0155C57.0722 92.1201 56.2408 91.2887 55.3454 90.6491C54.45 90.0735 53.4906 89.6258 52.5312 89.37C51.4439 89.1141 50.3567 88.9862 49.2054 88.9862C48.6298 88.9862 48.1182 88.9862 47.6065 89.0502C47.0948 89.1141 46.5832 89.1781 46.0715 89.306C45.6238 89.37 45.4319 89.5618 45.4319 89.9456V92.312C45.4319 92.6957 45.6878 92.8876 46.1355 92.8237C46.3913 92.8237 46.7111 92.7597 47.0948 92.7597H47.9263C49.6531 92.6957 51.316 93.0795 52.7871 93.9749C54.0023 94.8063 54.8977 95.8936 55.4733 97.2367L56.1129 98.5798L57.0083 100.563H29.6344C29.2507 100.626 28.803 100.499 28.4832 100.371C28.2913 100.243 28.1634 99.9229 28.1634 99.4752V92.0562C28.1634 91.8643 28.0994 91.7364 28.0355 91.6085C27.9076 91.4806 27.7797 91.4166 27.6518 91.4166C27.0761 91.2887 26.3726 91.2247 25.5411 91.1608C24.7097 91.0968 23.8143 91.0328 22.9828 91.0328C20.2966 91.0328 18.25 91.6085 16.8429 92.7597C15.4359 93.9109 14.6684 95.7018 14.6684 98.1961V98.4519C14.6684 98.8996 14.6044 102.801 14.6044 103.377C14.1567 103.441 13.709 103.505 13.1973 103.505C12.6857 103.569 12.174 103.569 11.5984 103.569C10.4472 103.632 9.23198 103.441 8.1447 102.993C7.31326 102.673 6.67368 102.098 6.16202 101.33C5.71431 100.563 5.39453 99.7311 5.26661 98.8357C5.1387 97.8124 5.07474 96.789 5.07474 95.7018C5.07474 95.382 5.07474 94.9982 5.1387 94.4865C5.20265 93.9749 5.20266 93.5272 5.26661 93.0795C5.33057 92.6318 5.1387 92.4399 4.691 92.4399H2.19665C1.81291 92.4399 1.62103 92.6318 1.55708 93.0795C1.49312 93.5272 1.42916 93.847 1.3652 94.2307C1.30124 94.6145 1.23729 94.9982 1.23729 95.382C1.23729 95.7657 1.17333 96.1494 1.17333 96.4692C1.17333 96.789 1.10938 97.1088 1.10938 97.3646C1.10938 98.8357 1.30124 100.371 1.68499 101.778C2.00478 102.993 2.64435 104.08 3.4758 104.976C4.37121 105.871 5.45849 106.511 6.67368 106.894C8.20866 107.342 9.80759 107.598 11.4065 107.534C12.6217 107.534 13.709 107.47 14.8602 107.406C15.9475 107.342 16.9708 107.214 17.8662 107.022C18.3139 106.958 18.5698 106.702 18.5698 106.319C18.6337 105.551 18.6977 98.5159 18.6977 98.5159C18.6977 97.1088 19.0175 96.0855 19.6571 95.5738C20.4885 94.9343 21.4479 94.6784 22.4712 94.8063C22.791 94.8063 23.0468 94.8063 23.2387 94.8063C23.1747 94.9982 23.4305 94.9982 23.7503 95.0622Z" fill="#015363"/>
<path d="M7.88888 113.61C8.08075 113.61 8.27262 113.546 8.40053 113.418C8.52845 113.29 8.65637 113.162 8.65637 112.97V110.668C8.65637 110.476 8.59241 110.284 8.40053 110.156C8.27262 110.028 8.08075 109.964 7.88888 109.964H5.71432C5.52245 109.964 5.33057 110.028 5.20266 110.156C5.07474 110.284 4.94683 110.476 5.01079 110.668V112.97C5.01079 113.162 5.07474 113.29 5.20266 113.418C5.33057 113.546 5.52245 113.61 5.71432 113.61H7.88888Z" fill="#015363"/>
<path d="M13.9006 113.61C14.0925 113.61 14.2844 113.546 14.4123 113.418C14.5402 113.29 14.6041 113.162 14.6041 112.97V110.668C14.6041 110.476 14.5402 110.284 14.4123 110.156C14.2844 110.028 14.0925 109.964 13.9006 109.964H11.726C11.5342 109.964 11.4063 110.028 11.2144 110.156C11.0865 110.284 10.9586 110.476 10.9586 110.668V112.97C10.9586 113.162 11.0225 113.29 11.2144 113.418C11.3423 113.546 11.5342 113.61 11.726 113.61H13.9006Z" fill="#015363"/>
<path d="M63.7238 107.662C63.532 107.662 63.3401 107.726 63.2122 107.854C63.0843 107.982 62.9564 108.174 63.0203 108.365V110.924C63.0203 111.116 63.0843 111.243 63.2122 111.371C63.3401 111.499 63.532 111.563 63.7238 111.563H66.2182C66.4101 111.563 66.6019 111.499 66.7938 111.371C66.9217 111.243 67.0496 111.116 67.0496 110.924V108.365C67.0496 108.174 66.9857 107.982 66.7938 107.854C66.6659 107.726 66.4101 107.662 66.2182 107.662H63.7238Z" fill="#015363"/>
<path d="M73.3814 108.877C72.8698 108.941 72.3581 108.941 71.8465 108.941H71.1429C70.7592 108.941 70.5673 109.069 70.5673 109.453V111.819C70.5034 112.139 70.6952 112.395 71.015 112.459C71.3988 112.523 71.7185 112.523 72.1023 112.523C72.55 112.523 72.8698 112.523 73.0617 112.523C74.2129 112.587 75.3641 112.395 76.3874 111.947C77.2829 111.563 77.9864 110.86 78.4341 110.028C78.6899 109.517 78.8818 109.005 78.9457 108.43C79.0737 107.726 79.0737 107.086 79.0737 106.383V104.848H83.2309H84.638C85.1496 104.848 85.6613 104.784 86.173 104.784C86.6846 104.784 87.1323 104.72 87.5161 104.656C87.8358 104.656 88.1556 104.592 88.5394 104.464C88.7313 104.4 88.9231 104.272 89.051 104.08C89.179 103.889 89.2429 103.697 89.2429 103.505C89.3069 102.929 89.3708 102.29 89.3708 101.586C89.3708 100.883 89.4348 100.243 89.4348 99.6673V80.8638C89.4348 80.6719 89.3708 80.4801 89.2429 80.3522C89.115 80.2242 88.9871 80.1603 88.7952 80.1603H85.9811C85.7892 80.1603 85.6613 80.2242 85.5334 80.3522C85.4055 80.4801 85.3415 80.6719 85.3415 80.8638V99.5394C85.3415 100.051 85.2775 100.371 85.0857 100.435C84.7659 100.563 84.4461 100.627 84.0624 100.563H79.2016V91.4168C79.2016 91.2249 79.1376 91.097 79.0097 90.9691C78.8818 90.8412 78.7539 90.7772 78.562 90.7772H75.7479C75.556 90.7772 75.4281 90.8412 75.3002 90.9691C75.1723 91.097 75.1083 91.2249 75.1083 91.4168V105.935C75.1083 106.447 75.0443 107.022 74.9164 107.534C74.8525 107.854 74.5966 108.174 74.3408 108.366C74.085 108.685 73.7652 108.813 73.3814 108.877Z" fill="#015363"/>
<path d="M94.4874 104.144C94.4874 104.335 94.5514 104.463 94.6793 104.591C94.8072 104.719 94.9351 104.783 95.127 104.783H98.0691C98.2609 104.783 98.4528 104.719 98.5168 104.591C98.6447 104.463 98.7086 104.272 98.7086 104.144V80.8631C98.7086 80.6712 98.6447 80.5433 98.5168 80.4154C98.3888 80.2875 98.197 80.2235 98.0691 80.2235H95.127C94.9351 80.2235 94.8072 80.2875 94.6793 80.4154C94.5514 80.5433 94.4874 80.6712 94.4874 80.8631V104.144Z" fill="#015363"/>
<path d="M131.903 111.435C132.031 111.307 132.095 111.116 132.095 110.988V108.429C132.095 108.046 131.775 107.726 131.391 107.662C131.391 107.662 131.391 107.662 131.327 107.662H129.089C128.897 107.662 128.705 107.726 128.577 107.854C128.385 107.982 128.321 108.174 128.321 108.365V110.924C128.321 111.116 128.385 111.307 128.577 111.371C128.705 111.499 128.897 111.563 129.089 111.563H131.327C131.583 111.627 131.775 111.563 131.903 111.435Z" fill="#015363"/>
<path d="M123.141 107.662C122.949 107.662 122.757 107.726 122.565 107.854C122.437 107.982 122.309 108.174 122.309 108.365V110.924C122.309 111.116 122.373 111.243 122.565 111.371C122.693 111.499 122.885 111.563 123.141 111.563H125.379C125.571 111.563 125.763 111.499 125.955 111.371C126.083 111.243 126.211 111.116 126.211 110.924V108.365C126.211 108.174 126.147 107.982 125.955 107.854C125.827 107.726 125.571 107.662 125.379 107.662H123.141Z" fill="#015363"/>
<path d="M154.672 81.7589C154.48 81.7589 154.288 81.8229 154.096 81.9508C153.968 82.0787 153.84 82.2706 153.84 82.4624V85.0207C153.84 85.2126 153.904 85.4045 154.032 85.5324C154.16 85.6603 154.416 85.7243 154.608 85.7243H157.102C157.294 85.7243 157.486 85.6603 157.614 85.5324C157.742 85.4045 157.806 85.2126 157.806 85.0207V82.4624C157.806 82.2706 157.742 82.0787 157.614 81.9508C157.486 81.8229 157.294 81.7589 157.102 81.7589H154.672Z" fill="#015363"/>
<path d="M149.875 100.691H131.775H131.264C131.072 100.691 130.816 100.627 130.624 100.627C130.432 100.563 130.24 100.499 130.048 100.435C129.92 100.371 129.793 100.307 129.665 100.179V91.5446C129.665 91.3528 129.601 91.2249 129.473 91.0969C129.345 90.969 129.217 90.9051 129.025 90.9051H126.275C126.083 90.9051 125.955 90.969 125.827 91.0969C125.699 91.2249 125.635 91.3528 125.635 91.5446V99.6033C125.635 99.7952 125.571 100.051 125.443 100.179C125.316 100.307 125.124 100.435 124.996 100.499C124.804 100.563 124.612 100.627 124.42 100.627C124.228 100.627 123.972 100.627 123.781 100.627H115.146V91.4807C115.146 91.2888 115.082 91.1609 114.954 91.033C114.826 90.9051 114.699 90.8411 114.507 90.8411H111.693C111.501 90.8411 111.373 90.9051 111.245 91.033C111.117 91.1609 111.053 91.2888 111.053 91.4807V105.999C111.053 106.511 110.989 107.086 110.861 107.598C110.797 107.918 110.541 108.238 110.285 108.429C109.966 108.621 109.646 108.749 109.262 108.813C108.751 108.877 108.239 108.877 107.727 108.877H107.024C106.64 108.877 106.448 109.005 106.448 109.389V111.755C106.384 112.075 106.576 112.331 106.896 112.395C107.28 112.459 107.599 112.459 107.983 112.459C108.431 112.459 108.751 112.459 108.942 112.459C110.094 112.523 111.245 112.331 112.268 111.883C113.164 111.499 113.867 110.796 114.315 109.964C114.571 109.453 114.763 108.941 114.826 108.365C114.954 107.662 114.954 107.022 114.954 106.319V104.784H123.077C123.397 104.784 123.781 104.784 124.164 104.72C124.548 104.656 124.996 104.656 125.379 104.528C125.763 104.464 126.147 104.336 126.531 104.208C126.914 104.08 127.234 103.888 127.554 103.697C128.194 104.144 128.897 104.464 129.665 104.592C130.496 104.72 131.328 104.784 132.159 104.784H161.324C161.515 104.784 161.643 104.72 161.771 104.656C161.899 104.592 161.963 104.4 161.963 104.272V101.33C161.963 101.138 161.899 101.01 161.771 100.882C161.643 100.755 161.515 100.691 161.324 100.755H154.544C153.968 100.499 153.457 99.987 153.201 99.4114C152.817 98.6439 152.625 97.8125 152.625 96.981V96.5973C152.625 95.2542 153.009 94.2948 153.841 93.7192C154.864 93.0796 156.079 92.7598 157.294 92.8878C157.614 92.8878 157.934 92.8878 158.19 92.8878H158.957L159.725 92.9517C159.98 92.9517 160.3 93.0157 160.62 93.0157C161.068 93.0796 161.324 92.8878 161.324 92.4401V90.0736C161.324 89.8817 161.26 89.7538 161.132 89.6259C160.94 89.562 160.748 89.498 160.556 89.434C159.853 89.3061 159.213 89.1782 158.637 89.1782C158.062 89.1782 157.358 89.1143 156.591 89.1143C155.567 89.1143 154.48 89.2422 153.457 89.498C152.497 89.7538 151.666 90.1376 150.899 90.7132C150.131 91.2888 149.555 91.9924 149.108 92.8878C148.66 93.9111 148.404 94.9983 148.468 96.0856V96.4694C148.468 97.3648 148.596 98.1962 148.788 99.0277C149.172 99.5393 149.491 100.179 149.875 100.691Z" fill="#015363"/>
<path d="M173.731 95.9578V96.5335C173.731 97.4289 173.859 98.2603 174.115 99.0918C174.306 99.7313 174.626 100.371 175.01 100.947H174.37H173.475L172.644 101.01H172.196C171.812 100.947 171.492 101.266 171.428 101.65V101.714C171.364 102.162 171.364 102.737 171.3 103.377C171.236 104.016 171.236 104.72 171.236 105.296C171.236 108.046 171.876 110.029 173.219 111.372C174.562 112.651 177.248 113.354 179.999 113.354H180.254C180.382 113.354 180.574 113.354 180.702 113.354C181.15 113.29 180.702 113.098 180.702 112.651V110.284C180.702 109.901 180.446 109.709 179.999 109.709H179.615C178.144 109.709 177.057 109.389 176.417 108.749C175.713 107.982 175.266 107.023 175.33 105.935C175.33 105.807 175.33 105.679 175.33 105.424C175.33 105.232 175.33 105.04 175.33 104.912H175.905H176.545H186.586C186.778 104.912 186.906 104.848 187.034 104.72C187.162 104.592 187.226 104.464 187.226 104.272V101.33C187.226 101.138 187.162 101.01 187.034 100.883C186.906 100.755 186.714 100.691 186.586 100.755H179.871C179.551 100.627 179.295 100.499 179.103 100.243C178.847 99.9872 178.656 99.7313 178.464 99.4115C178.272 99.0278 178.08 98.708 177.952 98.2603C177.824 97.8126 177.76 97.3649 177.76 96.9172V96.5974C177.76 95.1904 178.144 94.231 178.975 93.7193C180.063 93.0798 181.278 92.8239 182.493 92.8879C183.133 92.8879 183.772 92.8879 184.284 92.9518L186.075 93.0798C186.586 93.1437 186.842 92.9518 186.842 92.5041V90.1377C186.842 89.9458 186.778 89.8179 186.65 89.69C186.458 89.626 186.266 89.5621 186.075 89.4981C185.435 89.3702 184.731 89.3063 184.092 89.2423C183.516 89.1783 182.813 89.1783 182.045 89.1783C180.958 89.1783 179.871 89.3063 178.847 89.5621C177.888 89.8179 176.993 90.2017 176.225 90.7773C175.458 91.2889 174.818 91.9925 174.434 92.8239C173.923 93.7833 173.731 94.8706 173.731 95.9578Z" fill="#015363"/>
<path d="M244.34 85.7882C244.532 85.7882 244.724 85.7243 244.916 85.5964C245.108 85.4685 245.172 85.2766 245.172 85.0847V82.5904C245.172 82.3985 245.108 82.2066 244.916 82.0787C244.788 81.9508 244.532 81.8868 244.34 81.8868H242.102C241.91 81.8868 241.718 81.9508 241.526 82.0787C241.398 82.2066 241.27 82.3985 241.27 82.5904V85.1487C241.27 85.3405 241.334 85.5324 241.526 85.6603C241.654 85.7882 241.846 85.8522 242.102 85.8522L244.34 85.7882Z" fill="#015363"/>
<path d="M250.352 85.7882C250.544 85.7882 250.736 85.7243 250.864 85.5964C250.992 85.4685 251.055 85.2766 251.055 85.0847V82.5904C251.055 82.3985 250.992 82.2066 250.864 82.0787C250.736 81.9508 250.544 81.8868 250.352 81.8868H248.113C247.922 81.8868 247.73 81.9508 247.602 82.0787C247.474 82.2066 247.346 82.3985 247.346 82.5904V85.1487C247.346 85.3405 247.41 85.5324 247.602 85.6603C247.73 85.7882 247.922 85.8522 248.113 85.8522L250.352 85.7882Z" fill="#015363"/>
<path d="M262.568 80.2235H259.626C259.434 80.2235 259.306 80.2875 259.178 80.4154C259.05 80.5433 258.986 80.7352 258.986 80.927V99.6026C258.986 100.114 258.922 100.434 258.73 100.498C258.411 100.626 258.091 100.69 257.707 100.626H252.91V90.009C252.91 89.8811 252.91 89.7532 252.846 89.6252C252.718 89.4973 252.59 89.4334 252.399 89.3694C252.143 89.3055 251.759 89.2415 251.375 89.1775C250.992 89.1136 250.544 89.0496 250.096 88.9857C249.648 88.9217 249.137 88.8578 248.625 88.8578C248.113 88.8578 247.666 88.8578 247.218 88.8578C246.067 88.8578 244.916 88.9857 243.828 89.3055C242.869 89.5613 241.973 90.073 241.206 90.6486C240.439 91.2881 239.863 92.0556 239.543 92.8871C239.095 93.8464 238.904 94.9337 238.967 96.021V96.6606C238.967 97.492 239.095 98.2595 239.287 99.027C239.479 99.6026 239.799 100.178 240.247 100.562H234.235C234.299 100.434 234.299 100.242 234.363 100.114C234.426 99.9224 234.426 99.6666 234.426 99.4747C234.426 99.2189 234.426 99.027 234.426 98.8351C234.426 98.6433 234.426 98.4514 234.426 98.2595V97.492C234.49 96.085 234.235 94.7418 233.787 93.4627C233.403 92.4394 232.764 91.48 231.932 90.7765C231.101 90.073 230.141 89.5613 229.054 89.3055C227.839 88.9857 226.56 88.8578 225.281 88.8578C224.897 88.8578 224.449 88.8578 223.874 88.9217C223.234 88.9857 222.658 89.0496 222.019 89.1775C221.315 89.3055 220.676 89.4973 220.036 89.6892C219.396 89.945 218.757 90.2648 218.181 90.6486V80.7991C218.181 80.6072 218.117 80.4154 217.989 80.2875C217.861 80.1595 217.734 80.0956 217.542 80.0956H214.664C214.472 80.0956 214.344 80.1595 214.216 80.2875C214.088 80.4154 214.024 80.6072 214.024 80.7991V100.69H197.651C197.203 100.69 196.692 100.626 196.308 100.434C195.988 100.242 195.86 99.7945 195.86 99.091V80.8631C195.86 80.6712 195.796 80.5433 195.732 80.4154C195.604 80.2875 195.412 80.2235 195.221 80.2235H192.342C192.151 80.2235 191.959 80.2875 191.831 80.4154C191.703 80.5433 191.639 80.6712 191.639 80.8631V100.242C191.639 101.01 191.703 101.841 191.959 102.545C192.151 103.056 192.47 103.568 192.918 103.952C193.366 104.272 193.877 104.527 194.453 104.655C195.093 104.783 195.796 104.847 196.436 104.847H256.94H258.347C258.858 104.847 259.37 104.783 259.882 104.783C260.393 104.783 260.841 104.719 261.225 104.655C261.544 104.655 261.864 104.591 262.184 104.463C262.376 104.399 262.568 104.272 262.696 104.08C262.824 103.888 262.888 103.696 262.888 103.504C262.952 102.928 263.016 102.289 263.016 101.585C263.016 100.882 263.016 100.242 263.016 99.6666V80.8631C263.016 80.6712 262.952 80.4793 262.824 80.3514C262.824 80.2874 262.696 80.2235 262.568 80.2235ZM230.269 98.6433C230.333 99.2189 230.269 99.7945 230.077 100.37C230.013 100.626 229.758 100.818 229.502 100.754H221.891H219.78C219.205 100.754 218.693 100.754 218.181 100.69V94.2941C218.629 93.9744 219.077 93.7185 219.588 93.5906C220.1 93.3987 220.676 93.2708 221.251 93.1429C221.763 93.079 222.339 93.015 222.85 92.951C223.362 92.8871 223.81 92.8871 224.193 92.8871C225.089 92.8871 226.048 92.951 226.943 93.1429C227.647 93.2708 228.287 93.5906 228.862 94.0383C229.374 94.486 229.758 94.9977 229.949 95.6373C230.205 96.4048 230.333 97.3002 230.269 98.1316V98.6433ZM248.817 100.818H246.387C245.363 100.882 244.404 100.562 243.7 99.7945C243.125 98.9631 242.805 97.9397 242.869 96.9164V96.3408C242.869 93.8465 244.148 92.5673 246.706 92.5673C247.474 92.5673 248.177 92.6313 248.817 92.6313V100.818Z" fill="#015363"/>
<path d="M268.771 104.847H271.65C271.841 104.847 271.969 104.783 272.097 104.655C272.225 104.527 272.289 104.335 272.289 104.208V80.8631C272.289 80.6712 272.225 80.5433 272.097 80.4154C271.969 80.2875 271.777 80.2235 271.65 80.2235H268.771C268.58 80.2235 268.452 80.2875 268.324 80.4154C268.196 80.5433 268.132 80.6712 268.132 80.8631V104.144C268.132 104.335 268.196 104.463 268.324 104.591C268.452 104.783 268.58 104.847 268.771 104.847Z" fill="#015363"/>
<path d="M18.1857 121.86H15.4355C15.1157 121.796 14.8599 121.988 14.7959 122.308C14.7959 122.372 14.7959 122.436 14.7959 122.5V139.448C14.7959 139.64 14.732 139.704 14.668 139.704C14.5401 139.704 14.4762 139.64 14.4122 139.448L6.92916 122.883C6.80125 122.564 6.60938 122.244 6.28959 122.052C6.03376 121.924 5.77793 121.86 5.45814 121.86H2.00443C1.3009 121.86 0.725281 122.436 0.725281 123.139V145.204C0.725281 145.396 0.78924 145.524 0.917155 145.652C1.04507 145.78 1.17298 145.844 1.36486 145.844H4.11503C4.3069 145.844 4.43482 145.78 4.56273 145.652C4.69065 145.524 4.75461 145.396 4.75461 145.204V128.959C4.75461 128.767 4.81856 128.703 4.88252 128.703C4.94648 128.703 5.07439 128.767 5.20231 128.959L12.3655 144.693C12.6214 145.268 12.9412 145.588 13.261 145.716C13.5807 145.844 13.9645 145.844 14.3482 145.844H17.6101C17.9299 145.844 18.3136 145.716 18.5055 145.46C18.7613 145.204 18.8892 144.885 18.8892 144.565V122.436C18.9532 122.116 18.6973 121.86 18.4415 121.796C18.2496 121.86 18.1857 121.86 18.1857 121.86Z" fill="#015363"/>
<path d="M32.9606 145.652C33.0886 145.78 33.2165 145.844 33.4083 145.844H36.1585C36.3504 145.844 36.4783 145.78 36.6062 145.652C36.7341 145.524 36.7981 145.396 36.7981 145.204V133.564C36.7981 131.453 36.1585 129.919 34.9433 128.895C33.7281 127.872 31.9373 127.36 29.6349 127.36C28.6115 127.36 27.5882 127.424 26.5649 127.488C25.6695 127.616 24.902 127.744 24.1985 127.872C23.8147 127.936 23.5589 128.192 23.5589 128.511V130.558C23.5589 130.814 23.6229 130.942 23.6868 131.006C23.8147 131.07 23.9426 131.134 24.1345 131.07H24.3264C24.838 131.006 25.6055 130.942 26.5649 130.878C27.5243 130.814 28.5476 130.814 29.5709 130.814C30.3384 130.75 31.1059 130.942 31.7455 131.326C32.1932 131.645 32.449 132.349 32.449 133.436V134.843H30.4663C29.2511 134.843 28.0359 134.971 26.8847 135.163C25.9893 135.355 25.1578 135.739 24.4543 136.25C23.8147 136.698 23.367 137.338 23.0472 138.041C22.7274 138.809 22.5995 139.64 22.5995 140.472V140.599C22.5356 141.495 22.7274 142.454 23.1112 143.286C23.431 143.925 23.8147 144.501 24.3903 144.949C24.902 145.332 25.5416 145.652 26.1811 145.78C26.8207 145.908 27.5243 146.036 28.1638 146.036C28.9313 146.036 29.6988 145.908 30.4663 145.652C31.2338 145.396 32.0013 145.013 32.7048 144.565V145.076C32.7688 145.396 32.8327 145.588 32.9606 145.652ZM32.5129 141.815C32.0013 142.07 31.4896 142.262 30.914 142.454C30.3384 142.646 29.7628 142.71 29.1871 142.71C28.5476 142.774 27.908 142.646 27.3963 142.326C26.9486 141.879 26.7568 141.303 26.8207 140.727V140.599C26.8207 140.216 26.8847 139.768 26.9486 139.384C27.0126 139.064 27.2045 138.745 27.5243 138.553C27.844 138.297 28.2278 138.105 28.6115 138.041C29.1872 137.913 29.8267 137.849 30.4023 137.849H32.449V141.815H32.5129Z" fill="#015363"/>
<path d="M42.3619 140.984C42.3619 141.879 42.4258 142.775 42.6817 143.606C42.9375 144.821 43.9608 145.781 45.176 145.908C45.9435 146.036 46.711 146.1 47.5424 146.1C47.9262 146.1 48.246 146.1 48.6297 146.036C48.9495 145.972 49.3333 145.908 49.717 145.845C50.1007 145.781 50.3566 145.589 50.3566 145.269V143.222C50.3566 142.902 50.1007 142.711 49.653 142.711H47.9262C47.6704 142.711 47.4785 142.711 47.2226 142.647C47.0947 142.647 46.9029 142.519 46.8389 142.391C46.711 142.199 46.711 142.007 46.711 141.815C46.711 141.559 46.711 141.24 46.711 140.856V130.687H49.653C49.8449 130.687 49.9728 130.623 50.1007 130.495C50.2287 130.367 50.2926 130.239 50.2926 130.047V128.128C50.2926 127.936 50.2287 127.808 50.1007 127.681C49.9728 127.553 49.8449 127.489 49.653 127.489H46.647V124.163C46.647 123.843 46.4552 123.651 46.1354 123.651H46.0075L43.0015 124.163C42.8096 124.227 42.6817 124.291 42.5538 124.419C42.4258 124.547 42.3619 124.675 42.3619 124.866V127.489H39.2919C38.9082 127.489 38.6523 127.745 38.6523 128.128V129.599C38.6523 129.791 38.7163 129.919 38.8442 130.047C38.9721 130.175 39.164 130.239 39.2919 130.303L42.3619 130.751V140.984Z" fill="#015363"/>
<path d="M56.8807 127.68H53.9386C53.5549 127.68 53.2991 127.936 53.2991 128.32V145.204C53.2991 145.396 53.363 145.524 53.4909 145.652C53.6189 145.78 53.7468 145.844 53.9386 145.844H56.9447C57.1365 145.844 57.2644 145.78 57.3924 145.652C57.5203 145.524 57.5842 145.332 57.5842 145.204V128.32C57.5842 127.936 57.2644 127.68 56.8807 127.68Z" fill="#015363"/>
<path d="M57.0086 121.093H53.8747C53.6828 121.093 53.5549 121.157 53.427 121.285C53.2991 121.413 53.2351 121.541 53.2351 121.733V124.547C53.2351 124.739 53.2991 124.867 53.427 124.994C53.5549 125.122 53.7468 125.186 53.8747 125.186H57.0086C57.2005 125.186 57.3284 125.122 57.4563 124.994C57.5842 124.867 57.6482 124.739 57.6482 124.547V121.733C57.6482 121.541 57.5842 121.413 57.4563 121.285C57.3284 121.157 57.2005 121.093 57.0086 121.093Z" fill="#015363"/>
<path d="M63.2759 143.861C63.9155 144.565 64.7469 145.14 65.7063 145.524C67.8808 146.356 70.2473 146.356 72.4218 145.524C73.3172 145.14 74.1487 144.565 74.8522 143.861C75.4918 143.094 76.0034 142.262 76.3232 141.303C76.643 140.28 76.8349 139.192 76.8349 138.105V135.483C76.8349 134.396 76.707 133.308 76.3232 132.285C76.0034 131.326 75.4918 130.494 74.8522 129.727C74.1487 129.023 73.3812 128.448 72.4218 128.064C70.2473 127.232 67.8808 127.232 65.7063 128.064C64.8109 128.448 63.9794 129.023 63.2759 129.727C62.6363 130.494 62.1247 131.326 61.8049 132.285C61.4851 133.308 61.2932 134.396 61.2932 135.483V138.105C61.2932 139.192 61.4211 140.28 61.8049 141.303C62.1247 142.198 62.6363 143.094 63.2759 143.861ZM65.5784 135.483C65.5144 134.332 65.8342 133.244 66.4738 132.285C67.689 130.878 69.8635 130.686 71.2706 131.965C71.3985 132.093 71.5264 132.157 71.5904 132.285C72.23 133.244 72.5497 134.332 72.4858 135.483V138.105C72.5497 139.256 72.23 140.344 71.5904 141.303C70.3752 142.71 68.2006 142.902 66.7936 141.623C66.6656 141.495 66.5377 141.431 66.4738 141.303C65.8342 140.344 65.5144 139.256 65.5784 138.105V135.483Z" fill="#015363"/>
<path d="M89.8185 131.198C90.1383 131.262 90.4581 131.454 90.6499 131.773C90.8418 132.093 90.9697 132.477 91.0337 132.861C91.0976 133.436 91.0977 134.012 91.0977 134.651V145.204C91.0977 145.396 91.1616 145.524 91.2895 145.652C91.4174 145.78 91.5454 145.844 91.7372 145.844H94.6793C94.8712 145.844 94.9991 145.78 95.127 145.652C95.2549 145.524 95.3189 145.332 95.3189 145.204V134.651C95.3189 133.692 95.2549 132.733 95.127 131.773C94.9991 130.942 94.7432 130.174 94.2955 129.471C93.9118 128.831 93.2722 128.32 92.5687 127.936C91.6733 127.552 90.7139 127.36 89.7545 127.36C89.2429 127.36 88.7952 127.36 88.2835 127.424C87.8358 127.488 87.4521 127.552 87.0044 127.68C86.5567 127.808 86.1729 127.936 85.7892 128.128C85.3415 128.384 84.8938 128.575 84.51 128.895V128.192C84.51 128 84.4461 127.872 84.3182 127.744C84.1902 127.616 84.0623 127.552 83.8705 127.552H81.0563C80.6726 127.552 80.4167 127.808 80.4167 128.192V145.14C80.4167 145.332 80.4807 145.46 80.6086 145.588C80.7365 145.716 80.8645 145.78 81.0563 145.78H83.9984C84.1902 145.78 84.3182 145.716 84.4461 145.588C84.574 145.46 84.6379 145.268 84.6379 145.14V132.157C85.2775 131.837 85.9171 131.517 86.5567 131.326C87.1323 131.134 87.7079 131.006 88.2835 131.006C88.7952 131.006 89.3068 131.07 89.8185 131.198Z" fill="#015363"/>
<path d="M109.006 145.204C109.006 145.396 109.07 145.524 109.197 145.652C109.325 145.78 109.453 145.844 109.645 145.844H112.395C112.779 145.844 113.035 145.588 113.035 145.204V133.564C113.035 131.453 112.395 129.919 111.18 128.895C109.965 127.872 108.174 127.36 105.872 127.36C104.848 127.36 103.825 127.424 102.802 127.488C101.906 127.616 101.139 127.744 100.435 127.872C99.9876 127.936 99.7957 128.192 99.7957 128.511V130.558C99.7957 130.814 99.8596 130.942 99.9236 131.006C100.052 131.07 100.179 131.134 100.371 131.07H100.499C101.011 131.006 101.778 130.942 102.738 130.878C103.697 130.814 104.72 130.814 105.744 130.814C106.511 130.75 107.279 130.942 107.918 131.326C108.366 131.645 108.622 132.349 108.622 133.436V134.843H106.575C105.36 134.843 104.145 134.971 102.994 135.163C102.098 135.355 101.267 135.739 100.563 136.25C99.9236 136.698 99.4759 137.274 99.1561 137.977C98.8363 138.745 98.7084 139.576 98.7084 140.408V140.535C98.6445 141.431 98.8363 142.39 99.2201 143.222C99.5399 143.861 99.9236 144.437 100.499 144.885C101.011 145.268 101.65 145.588 102.29 145.716C102.93 145.844 103.633 145.972 104.273 145.972C105.04 145.972 105.808 145.844 106.575 145.588C107.343 145.332 108.11 144.949 108.814 144.501L109.006 145.204ZM108.75 141.815C108.238 142.07 107.726 142.262 107.151 142.454C106.575 142.646 106 142.71 105.424 142.71C104.784 142.774 104.145 142.646 103.633 142.326C103.185 141.879 102.994 141.303 103.058 140.727V140.599C103.058 140.216 103.121 139.768 103.185 139.384C103.249 139.064 103.441 138.745 103.761 138.553C104.081 138.297 104.465 138.105 104.848 138.041C105.424 137.913 106.064 137.849 106.639 137.849H108.686V141.815H108.75Z" fill="#015363"/>
<path d="M117.384 121.284C117.001 121.284 116.745 121.54 116.745 121.924V145.204C116.745 145.396 116.809 145.524 116.937 145.652C117.065 145.78 117.193 145.844 117.384 145.844H120.39C120.582 145.844 120.71 145.78 120.838 145.652C120.966 145.524 121.03 145.332 121.03 145.204V121.924C121.03 121.732 120.966 121.604 120.838 121.476C120.71 121.348 120.582 121.284 120.39 121.284H117.384Z" fill="#015363"/>
<path d="M135.421 128.639C135.613 127.936 135.932 127.296 136.38 126.785C136.764 126.337 137.276 125.953 137.851 125.761C138.491 125.569 139.13 125.442 139.77 125.442C140.218 125.442 140.665 125.442 141.113 125.442L142.52 125.506C142.968 125.506 143.415 125.569 143.799 125.569L144.823 125.633H144.887C145.078 125.633 145.27 125.569 145.398 125.442C145.526 125.314 145.526 125.122 145.526 124.93V122.755C145.526 122.563 145.462 122.372 145.334 122.244C145.206 122.116 145.014 122.052 144.823 121.988L144.183 121.86C143.863 121.796 143.479 121.732 143.032 121.668C142.584 121.604 142.072 121.54 141.497 121.54C140.921 121.54 140.346 121.476 139.706 121.476C138.683 121.476 137.659 121.604 136.636 121.86C135.549 122.116 134.525 122.627 133.694 123.331C132.735 124.162 131.967 125.186 131.455 126.337C130.816 127.936 130.496 129.599 130.56 131.326V136.122C130.496 137.785 130.816 139.448 131.455 141.047C131.967 142.198 132.735 143.222 133.694 144.053C134.525 144.757 135.549 145.332 136.636 145.588C137.659 145.844 138.683 145.972 139.706 146.036C140.346 146.036 140.921 146.036 141.497 145.972C142.072 145.908 142.584 145.908 143.032 145.844C143.479 145.78 143.863 145.716 144.183 145.716C144.375 145.652 144.631 145.652 144.823 145.588C145.014 145.524 145.206 145.46 145.334 145.332C145.462 145.204 145.526 145.013 145.526 144.821V142.646C145.526 142.454 145.462 142.326 145.398 142.134C145.27 142.007 145.078 141.943 144.887 141.943H144.823L143.799 142.007C143.415 142.071 142.968 142.071 142.52 142.071L141.113 142.134C140.665 142.134 140.154 142.134 139.77 142.134C139.13 142.134 138.491 142.071 137.851 141.815C137.276 141.623 136.764 141.239 136.38 140.791C135.932 140.216 135.613 139.576 135.421 138.937C135.165 138.041 135.037 137.082 135.037 136.122V131.39C135.037 130.558 135.165 129.535 135.421 128.639Z" fill="#015363"/>
<path d="M159.148 145.973C159.596 145.909 160.044 145.845 160.555 145.845C161.003 145.781 161.515 145.717 162.026 145.589C162.346 145.525 162.538 145.461 162.602 145.333C162.666 145.141 162.73 144.949 162.73 144.757V142.647C162.73 142.519 162.666 142.391 162.602 142.263C162.474 142.199 162.346 142.135 162.154 142.135H162.09C161.387 142.199 160.555 142.263 159.468 142.327C158.381 142.391 157.293 142.455 156.142 142.455C155.503 142.455 154.799 142.327 154.223 142.071C153.776 141.879 153.328 141.496 153.008 141.112C152.688 140.728 152.497 140.28 152.433 139.769C152.305 139.321 152.305 138.809 152.305 138.362V138.298H162.794C163.241 138.298 163.433 138.042 163.433 137.466V135.611C163.433 134.46 163.305 133.373 162.922 132.286C162.602 131.326 162.09 130.431 161.451 129.663C160.811 128.896 159.98 128.32 159.02 128C157.997 127.553 156.846 127.361 155.695 127.425C154.543 127.425 153.456 127.617 152.433 128C151.537 128.384 150.706 128.896 150.002 129.663C149.363 130.431 148.851 131.262 148.531 132.222C148.148 133.309 148.02 134.46 148.02 135.611V137.978C147.956 139.321 148.211 140.664 148.787 141.943C149.235 142.903 149.874 143.734 150.706 144.438C151.473 145.013 152.305 145.461 153.264 145.717C154.096 145.973 154.991 146.1 155.886 146.1C156.59 146.1 157.229 146.1 157.805 146.1C158.381 146.1 158.701 146.036 159.148 145.973ZM152.177 135.1C152.113 134.012 152.433 132.989 153.136 132.158C153.776 131.454 154.671 131.134 155.631 131.134C156.59 131.07 157.485 131.454 158.061 132.158C158.701 132.989 159.084 134.012 159.02 135.1V135.228H152.177V135.1Z" fill="#015363"/>
<path d="M181.726 145.652C181.854 145.524 181.918 145.332 181.918 145.204V134.651C181.918 133.692 181.854 132.733 181.662 131.773C181.534 130.942 181.278 130.174 180.83 129.471C180.447 128.831 179.807 128.256 179.168 127.936C178.272 127.552 177.313 127.36 176.289 127.36C175.778 127.36 175.33 127.36 174.818 127.424C174.371 127.488 173.987 127.552 173.539 127.68C173.156 127.808 172.708 127.936 172.324 128.128C171.876 128.384 171.429 128.575 171.045 128.895V128.192C171.045 128 170.981 127.872 170.853 127.744C170.725 127.616 170.597 127.552 170.405 127.552H167.591C167.207 127.552 166.952 127.808 166.952 128.192V145.14C166.952 145.332 167.016 145.46 167.144 145.588C167.271 145.716 167.399 145.78 167.591 145.78H170.533C170.725 145.78 170.853 145.716 170.981 145.588C171.109 145.46 171.173 145.268 171.173 145.14V132.157C171.812 131.837 172.452 131.517 173.092 131.326C173.667 131.134 174.243 131.006 174.818 131.006C175.33 131.006 175.842 131.07 176.289 131.198C176.609 131.262 176.929 131.517 177.121 131.773C177.313 132.093 177.441 132.477 177.505 132.861C177.569 133.436 177.569 134.012 177.569 134.651V145.204C177.569 145.396 177.633 145.524 177.76 145.652C177.888 145.78 178.016 145.844 178.208 145.844H181.15C181.406 145.908 181.598 145.78 181.726 145.652Z" fill="#015363"/>
<path d="M184.22 127.872C184.092 128 184.028 128.128 184.028 128.32V129.791C184.028 129.983 184.092 130.111 184.22 130.239C184.348 130.367 184.54 130.431 184.668 130.495L187.738 130.942V140.984C187.738 141.879 187.802 142.775 188.057 143.606C188.185 144.182 188.505 144.757 188.953 145.141C189.401 145.525 189.976 145.781 190.552 145.908C191.319 146.036 192.087 146.1 192.918 146.1C193.302 146.1 193.622 146.1 194.005 146.036C194.325 145.972 194.709 145.908 195.093 145.845C195.476 145.781 195.732 145.589 195.732 145.269V143.222C195.732 142.902 195.476 142.711 195.029 142.711H193.302C193.046 142.711 192.854 142.711 192.598 142.647C192.47 142.647 192.343 142.519 192.215 142.391C192.087 142.199 192.087 142.007 192.023 141.815C192.023 141.559 192.023 141.24 192.023 140.856V130.687H194.901C195.093 130.687 195.221 130.623 195.349 130.495C195.476 130.367 195.54 130.239 195.54 130.047V128.128C195.54 127.936 195.476 127.808 195.349 127.681C195.221 127.553 195.093 127.489 194.901 127.489H191.959V124.163C191.959 123.843 191.767 123.651 191.447 123.651H191.319L188.313 124.355C188.121 124.419 187.993 124.483 187.866 124.611C187.738 124.739 187.674 124.866 187.674 125.058V127.681H184.668C184.476 127.617 184.284 127.745 184.22 127.872Z" fill="#015363"/>
<path d="M200.657 144.438C201.424 145.013 202.256 145.461 203.215 145.717C204.046 145.973 204.942 146.1 205.837 146.1C206.541 146.1 207.18 146.1 207.756 146.1C208.332 146.1 208.779 146.036 209.291 145.973C209.803 145.909 210.186 145.909 210.634 145.845C211.082 145.781 211.593 145.717 212.105 145.589C212.425 145.525 212.617 145.461 212.681 145.333C212.745 145.141 212.809 144.949 212.809 144.757V142.647C212.809 142.519 212.745 142.391 212.681 142.263C212.553 142.199 212.425 142.135 212.233 142.135H212.169C211.465 142.199 210.634 142.263 209.547 142.327C208.459 142.391 207.372 142.455 206.221 142.455C205.581 142.455 204.878 142.327 204.302 142.071C203.855 141.879 203.407 141.496 203.087 141.112C202.767 140.728 202.575 140.28 202.511 139.769C202.384 139.321 202.384 138.809 202.384 138.362V138.298H212.873C213.32 138.298 213.512 138.042 213.512 137.466V135.611C213.512 134.46 213.384 133.373 213 132.286C212.681 131.326 212.169 130.431 211.529 129.663C210.89 128.896 210.058 128.32 209.099 128C208.076 127.553 206.924 127.361 205.773 127.425C204.622 127.425 203.535 127.617 202.511 128C201.616 128.384 200.721 128.896 200.081 129.663C199.377 130.431 198.866 131.262 198.61 132.222C198.226 133.309 198.098 134.46 198.098 135.611V137.978C198.034 139.321 198.29 140.664 198.866 141.943C199.186 142.903 199.825 143.798 200.657 144.438ZM202.32 135.1C202.256 134.012 202.575 132.989 203.279 132.158C203.918 131.518 204.814 131.134 205.773 131.198C206.733 131.134 207.628 131.518 208.204 132.222C208.907 133.053 209.227 134.076 209.163 135.164V135.292H202.32V135.1Z" fill="#015363"/>
<path d="M221.188 145.652C221.315 145.524 221.379 145.332 221.379 145.204V132.221C222.019 131.837 222.723 131.581 223.49 131.39C224.257 131.198 225.089 131.07 225.856 131.07C226.24 131.07 226.496 130.814 226.496 130.43V128.064C226.496 127.872 226.432 127.744 226.304 127.616C226.176 127.488 226.048 127.424 225.856 127.424C225.089 127.424 224.385 127.552 223.682 127.744C222.786 128 221.955 128.448 221.251 129.023V128.32C221.251 128.128 221.188 128 221.06 127.872C220.932 127.744 220.804 127.68 220.612 127.68H217.734C217.35 127.68 217.094 127.936 217.094 128.32V145.204C217.094 145.396 217.158 145.524 217.286 145.652C217.414 145.78 217.542 145.844 217.734 145.844H220.676C220.868 145.844 221.06 145.78 221.188 145.652Z" fill="#015363"/>
<path d="M118.343 48.5651H120.837C121.029 48.5651 121.221 48.5012 121.349 48.3732C121.477 48.2453 121.541 48.0534 121.541 47.8616V45.3672C121.541 45.1754 121.477 44.9835 121.349 44.8556C121.221 44.7277 121.029 44.6637 120.837 44.6637H118.279C118.087 44.6637 117.895 44.7277 117.704 44.8556C117.576 44.9835 117.448 45.1754 117.448 45.3672V47.8616C117.448 48.0534 117.512 48.2453 117.64 48.3732C117.959 48.5012 118.151 48.5651 118.343 48.5651Z" fill="#015363"/>
<path d="M159.149 66.0254H161.515V66.9848C161.515 67.4964 161.451 68.0081 161.196 68.5197C160.94 68.9035 160.62 69.2233 160.236 69.4151C159.725 69.671 159.213 69.7989 158.637 69.8628C157.934 69.9268 157.166 69.9908 156.399 69.9908H153.457C153.073 69.9908 152.881 70.1826 152.881 70.5664V72.9328C152.881 73.0607 152.881 73.1886 152.945 73.3166C153.073 73.4445 153.201 73.5084 153.393 73.5084C153.649 73.5724 153.84 73.5724 154.096 73.5724C154.416 73.5724 154.8 73.5724 155.247 73.6363C155.631 73.7003 156.015 73.7003 156.399 73.7003H157.23C158.253 73.7003 159.341 73.6363 160.364 73.3805C161.259 73.1886 162.155 72.8688 162.922 72.3572C163.69 71.8455 164.266 71.142 164.713 70.3745C165.225 69.3512 165.545 68.2639 165.545 67.1127V66.0254H168.679H170.086C170.597 66.0254 171.109 66.0254 171.621 65.9614C172.132 65.8975 172.58 65.8975 172.964 65.8335C173.284 65.8335 173.603 65.7696 173.923 65.7056C174.115 65.6417 174.307 65.5137 174.435 65.3219C174.563 65.13 174.627 65.0021 174.627 64.8102C174.691 64.2346 174.755 63.595 174.755 62.8915C174.755 62.1879 174.755 61.5484 174.755 60.9727V42.1692C174.755 41.9774 174.691 41.7855 174.563 41.6576C174.435 41.5297 174.307 41.4657 174.115 41.4657H171.173C170.981 41.4657 170.853 41.5297 170.725 41.6576C170.597 41.7855 170.533 41.9774 170.533 42.1692V60.8448C170.533 61.3565 170.469 61.6763 170.278 61.7402C169.958 61.8682 169.638 61.9321 169.254 61.8682H165.417V51.4431C165.417 51.3152 165.417 51.1872 165.289 51.0593C165.161 50.9314 165.033 50.8675 164.841 50.8035C164.521 50.6756 164.266 50.6116 163.946 50.5477C163.562 50.4837 163.178 50.4198 162.731 50.4198L161.387 50.2918C160.94 50.2279 160.492 50.2279 160.108 50.2279C157.358 50.2279 155.184 50.9314 153.713 52.3385C152.241 53.7455 151.474 55.6643 151.474 58.2226V58.8622C151.474 61.2286 152.114 62.9554 153.457 64.1706C154.8 65.3858 156.846 66.0254 159.149 66.0254ZM155.759 57.9667C155.695 56.8795 156.079 55.8561 156.782 55.0887C157.55 54.3851 158.573 54.0014 159.661 54.0653C160.3 54.0653 161.004 54.0653 161.643 54.1293V62.06H159.213C158.254 62.124 157.294 61.8042 156.591 61.1646C156.015 60.3971 155.695 59.4378 155.759 58.4144V57.9667Z" fill="#015363"/>
<path d="M180.575 66.0254H183.453C183.645 66.0254 183.773 65.9614 183.901 65.8335C184.029 65.7056 184.093 65.5137 184.093 65.3858V42.1053C184.093 41.9134 184.029 41.7855 183.901 41.6576C183.773 41.5297 183.581 41.4657 183.453 41.4657H180.575C180.383 41.4657 180.255 41.5297 180.127 41.6576C179.999 41.7855 179.935 41.9134 179.935 42.1053V65.3858C179.935 65.5777 179.999 65.7056 180.127 65.8335C180.191 65.9614 180.383 66.0894 180.575 66.0254Z" fill="#015363"/>
<path d="M95.383 74.7872H97.5575C97.7494 74.7872 97.9413 74.7232 98.0692 74.5953C98.1971 74.4674 98.261 74.3395 98.325 74.1476V71.8451C98.325 71.6533 98.2611 71.4614 98.0692 71.3335C97.9413 71.2056 97.7494 71.1416 97.5575 71.1416H95.383C95.1911 71.1416 95.0632 71.2056 94.8713 71.3335C94.7434 71.4614 94.6155 71.6533 94.6155 71.8451V74.1476C94.6155 74.3395 94.6794 74.4674 94.8713 74.5953C94.9992 74.7232 95.1911 74.7872 95.383 74.7872Z" fill="#015363"/>
<path d="M86.8127 66.3453C87.7081 67.2407 88.7954 67.8803 90.0106 68.264C91.5456 68.7117 93.1445 68.9676 94.7435 68.9036C95.9587 68.9036 97.1099 68.8397 98.1972 68.7757C99.2844 68.7117 100.308 68.5838 101.203 68.392C101.651 68.328 101.907 68.0722 101.907 67.6884C101.971 66.9209 102.035 59.8856 102.035 59.8856C102.035 58.4785 102.354 57.4552 102.994 56.9436C103.761 56.3679 104.785 56.0482 105.744 56.1121C106 56.1121 106.256 56.1121 106.512 56.1761L107.343 56.24V61.9322C107.343 62.6358 107.407 63.3393 107.599 63.9789C107.791 64.4905 108.111 64.9382 108.494 65.258C108.878 65.5778 109.39 65.8337 109.901 65.8976C110.541 66.0255 111.181 66.0895 111.884 66.0895H115.082C115.402 66.0895 115.785 66.0895 116.233 66.0255C116.617 66.0255 117.065 65.9616 117.448 65.8337C117.832 65.7697 118.216 65.6418 118.6 65.5139C118.983 65.3859 119.303 65.1941 119.623 65.0022C120.263 65.4499 120.966 65.7697 121.734 65.8976C122.437 66.0255 123.205 66.0895 123.908 66.0895H140.601C141.368 66.0895 142.136 66.0895 142.903 66.0895C143.671 66.0895 144.438 66.0255 145.142 66.0255C145.654 66.0255 146.165 66.0255 146.613 65.9616C146.869 65.9616 147.189 65.8336 147.381 65.6418C147.508 65.4499 147.636 65.258 147.7 65.0662C147.892 64.2987 147.956 63.5312 148.02 62.7637C148.084 61.8683 148.148 61.0368 148.148 60.3333V58.9902C148.212 57.5831 147.956 56.24 147.508 54.9609C147.125 53.9375 146.485 52.9782 145.654 52.2747C144.822 51.5711 143.863 51.0595 142.776 50.8036C141.56 50.4838 140.281 50.3559 139.002 50.3559C138.618 50.3559 138.171 50.3559 137.595 50.4199C136.955 50.4838 136.38 50.5478 135.74 50.6757C135.037 50.8036 134.397 50.9955 133.758 51.1874C133.118 51.4432 132.478 51.763 131.903 52.1467V42.2973C131.903 42.1054 131.839 41.9135 131.711 41.7856C131.583 41.6577 131.455 41.5938 131.263 41.5938H128.321C128.129 41.5938 128.001 41.6577 127.873 41.7856C127.746 41.9135 127.682 42.1054 127.682 42.2973V62.0602H123.46H122.949C122.757 62.0602 122.501 61.9962 122.309 61.9962C122.117 61.9322 122.245 61.8683 122.053 61.8043C121.925 61.7404 121.797 61.6764 121.67 61.5485V52.9142C121.67 52.5305 121.414 52.2747 121.03 52.2747H118.216C118.024 52.2747 117.896 52.3386 117.768 52.4665C117.64 52.5944 117.576 52.7224 117.576 52.9142V60.9729C117.576 61.1647 117.512 61.4206 117.384 61.5485C117.257 61.6764 117.065 61.8043 116.937 61.8683C116.745 61.9322 116.553 61.9962 116.361 61.9962C116.169 61.9962 115.977 61.9962 115.722 61.9962H112.971C112.588 62.0602 112.14 61.9322 111.82 61.8043C111.628 61.6764 111.5 61.3566 111.5 60.9089V53.6178C111.5 53.4259 111.436 53.298 111.372 53.1701C111.245 53.1061 111.117 53.0421 110.989 52.9782C110.413 52.8503 109.71 52.7863 108.878 52.7224C108.047 52.6584 107.151 52.5944 106.32 52.5944C103.634 52.5944 101.587 53.1701 100.18 54.3213C98.7728 55.4725 98.0053 57.3273 98.0053 59.7577V60.0135C98.0053 60.4612 97.9413 64.3626 97.9413 64.9382C97.4936 65.0022 97.0459 65.0662 96.5343 65.0662C96.0226 65.0662 95.511 65.1301 94.9353 65.1301C93.7841 65.1941 92.5689 65.0022 91.4816 64.5545C90.7141 64.2347 90.0746 63.6591 89.5629 62.9556C89.1152 62.1881 88.7954 61.3566 88.6675 60.4612C88.5396 59.4379 88.4756 58.4146 88.4756 57.3273C88.4756 57.0075 88.4756 56.6238 88.5396 56.1761C88.6035 55.6644 88.6035 55.2167 88.6675 54.769C88.7315 54.3213 88.5396 54.1294 88.0919 54.1294H85.5975C85.2138 54.1294 85.0219 54.3213 84.958 54.769C84.894 55.2167 84.83 55.4725 84.7661 55.9202C84.7021 56.304 84.7021 56.6877 84.6382 57.0715C84.5742 57.4552 84.5742 57.839 84.5742 58.1587C84.5742 58.4785 84.5103 58.7983 84.5103 59.0541C84.5103 60.5252 84.7021 62.0602 85.0859 63.4672C85.3417 64.3626 85.9173 65.4499 86.8127 66.3453ZM131.839 55.6004C132.287 55.2807 132.734 55.0248 133.246 54.8969C133.758 54.705 134.333 54.5771 134.909 54.4492C135.42 54.3853 135.996 54.3213 136.572 54.2573C137.083 54.2573 137.531 54.1934 137.915 54.1934C138.81 54.1934 139.77 54.2573 140.665 54.4492C141.368 54.5771 142.008 54.8969 142.584 55.3446C143.095 55.7923 143.479 56.304 143.671 56.9436C143.927 57.711 144.055 58.6064 143.991 59.4379V59.9496C143.991 60.5252 143.991 61.1008 143.863 61.6764C143.799 61.9322 143.543 62.1241 143.287 62.0602H135.74C134.909 62.0602 134.141 62.0602 133.566 62.0602C132.99 62.0602 132.35 62.0602 131.903 61.9962L131.839 55.6004Z" fill="#015363"/>
<path d="M89.3711 71.2057C89.1793 71.2057 88.9874 71.2696 88.8595 71.3976C88.7315 71.5255 88.6036 71.7174 88.6036 71.9092V74.2117C88.6036 74.4036 88.6676 74.5315 88.8595 74.6594C88.9874 74.7873 89.1793 74.8513 89.3711 74.8513H91.5457C91.7376 74.8513 91.9294 74.7873 92.0573 74.6594C92.1853 74.5315 92.3132 74.4036 92.3132 74.2117V71.9092C92.3132 71.7174 92.2492 71.5255 92.1213 71.3976C91.9934 71.2696 91.8015 71.2057 91.6096 71.2057H89.3711Z" fill="#015363"/>
<path d="M244.212 121.349C244.084 121.285 243.956 121.221 243.829 121.157C243.509 121.093 243.253 121.029 242.933 120.965C242.613 120.901 242.23 120.901 241.91 120.901C241.142 120.901 240.375 120.965 239.607 121.093C238.968 121.221 238.392 121.477 237.817 121.925C237.305 122.372 236.921 122.884 236.665 123.524C236.346 124.355 236.218 125.186 236.282 126.082V127.681H233.403C233.212 127.681 233.084 127.745 232.956 127.873C232.828 128.001 232.764 128.128 232.764 128.32V129.791C232.764 129.919 232.828 130.111 232.956 130.175C233.084 130.303 233.212 130.367 233.403 130.367L236.282 130.815V145.141C236.282 145.525 236.601 145.781 236.985 145.845H239.927C240.119 145.845 240.247 145.781 240.375 145.653C240.503 145.525 240.567 145.333 240.567 145.205V130.879H243.701C243.893 130.879 244.02 130.815 244.148 130.687C244.276 130.559 244.34 130.431 244.34 130.239V128.32C244.34 128.128 244.276 128.001 244.148 127.873C244.02 127.745 243.893 127.681 243.701 127.681H240.567V126.082C240.503 125.506 240.631 124.995 240.95 124.483C241.398 124.163 241.974 124.035 242.485 124.099H243.956C244.084 124.099 244.212 124.035 244.276 123.971C244.404 123.843 244.468 123.715 244.404 123.524V121.605C244.404 121.541 244.34 121.413 244.212 121.349Z" fill="#015363"/>
<path d="M259.306 129.727C258.602 129.023 257.835 128.448 256.876 128.064C254.701 127.232 252.335 127.232 250.16 128.064C249.265 128.448 248.433 129.023 247.73 129.727C247.09 130.494 246.578 131.326 246.259 132.285C245.939 133.308 245.747 134.396 245.747 135.483V138.105C245.747 139.192 245.939 140.28 246.259 141.303C246.578 142.262 247.09 143.094 247.73 143.861C248.369 144.565 249.201 145.14 250.16 145.524C252.335 146.356 254.701 146.356 256.876 145.524C257.771 145.14 258.602 144.565 259.306 143.861C259.946 143.094 260.457 142.262 260.777 141.303C261.097 140.28 261.289 139.192 261.289 138.105V135.483C261.289 134.396 261.097 133.308 260.777 132.285C260.457 131.326 259.946 130.43 259.306 129.727ZM257.003 138.105C257.067 139.256 256.748 140.344 256.108 141.303C254.893 142.71 252.718 142.902 251.311 141.623C251.183 141.495 251.055 141.367 250.991 141.303C250.352 140.344 250.032 139.256 250.096 138.105V135.483C250.032 134.332 250.352 133.244 250.991 132.285C252.207 130.878 254.381 130.686 255.788 131.965C255.916 132.093 256.044 132.221 256.108 132.285C256.748 133.244 257.067 134.332 257.003 135.483V138.105Z" fill="#015363"/>
<path d="M274.08 127.616C273.952 127.488 273.824 127.424 273.632 127.424C272.865 127.424 272.161 127.552 271.458 127.744C270.562 128 269.731 128.448 269.027 129.023V128.32C269.027 127.936 268.771 127.68 268.388 127.68H265.574C265.19 127.68 264.934 127.936 264.934 128.32V145.204C264.934 145.396 264.998 145.524 265.126 145.652C265.254 145.78 265.382 145.844 265.574 145.844H268.516C268.707 145.844 268.835 145.78 268.963 145.652C269.091 145.524 269.155 145.332 269.155 145.204V132.221C269.795 131.837 270.498 131.581 271.266 131.39C272.033 131.198 272.865 131.07 273.632 131.07C273.824 131.07 273.952 131.006 274.08 130.878C274.208 130.75 274.272 130.622 274.272 130.43V128.128C274.272 127.872 274.208 127.744 274.08 127.616Z" fill="#015363"/>
<path d="M17.9936 159.659H15.1795C14.8597 159.595 14.6039 159.787 14.5399 160.107C14.5399 160.171 14.5399 160.235 14.5399 160.299V177.311C14.5399 177.503 14.4759 177.631 14.412 177.631C14.348 177.631 14.2201 177.567 14.1561 177.375L6.60916 160.746C6.48125 160.426 6.28937 160.107 6.03354 159.915C5.77771 159.787 5.52188 159.723 5.20209 159.723H1.74839C1.4286 159.723 1.04486 159.851 0.852982 160.107C0.597152 160.363 0.469238 160.682 0.469238 161.066V183.131C0.469238 183.323 0.533193 183.451 0.661108 183.579C0.789023 183.707 0.916941 183.771 1.10881 183.771H3.85898C4.05086 183.771 4.17878 183.707 4.30669 183.579C4.43461 183.451 4.49856 183.323 4.49856 183.131V166.886C4.49856 166.694 4.56252 166.63 4.62648 166.63C4.75439 166.63 4.81835 166.694 4.8823 166.886L12.0455 182.62C12.3014 183.195 12.6212 183.515 12.941 183.643C13.2607 183.771 13.6445 183.771 14.0282 183.771H17.2901C17.9936 183.771 18.5692 183.195 18.5692 182.492V160.363C18.6332 160.043 18.3773 159.787 18.1215 159.787C18.0576 159.659 18.0576 159.659 17.9936 159.659Z" fill="#015363"/>
<path d="M36.0298 167.526C35.3262 166.823 34.5587 166.247 33.5994 165.863C32.5121 165.416 31.4248 165.224 30.2736 165.224C29.1223 165.224 27.9711 165.416 26.9478 165.863C26.0524 166.247 25.2209 166.823 24.5174 167.526C23.8778 168.294 23.3662 169.125 23.0464 170.085C22.7266 171.108 22.5347 172.195 22.5347 173.283V175.905C22.5347 176.992 22.6626 178.079 23.0464 179.103C23.3662 180.062 23.8778 180.893 24.5174 181.661C25.157 182.365 25.9884 182.94 26.9478 183.324C28.0351 183.772 29.1223 183.963 30.2736 183.963C31.4248 183.963 32.5761 183.772 33.5994 183.324C34.4948 182.94 35.3262 182.365 36.0298 181.661C36.6693 180.893 37.181 180.062 37.5008 179.103C37.8206 178.079 38.0124 176.992 38.0124 175.905V173.283C38.0124 172.195 37.8845 171.108 37.5008 170.085C37.245 169.125 36.7333 168.294 36.0298 167.526ZM33.7912 175.905C33.8552 177.056 33.5354 178.143 32.8958 179.103C32.3202 179.87 31.3609 180.318 30.3375 180.254C29.3142 180.318 28.3549 179.87 27.7792 179.103C27.1397 178.143 26.8199 177.056 26.8838 175.905V173.283C26.8199 172.131 27.1397 171.044 27.7792 170.085C28.3549 169.317 29.3142 168.869 30.3375 168.933C31.3609 168.869 32.3202 169.317 32.8958 170.085C33.5354 171.044 33.8552 172.131 33.7912 173.283V175.905Z" fill="#015363"/>
<path d="M55.537 167.27C55.1533 166.63 54.5137 166.055 53.8102 165.735C52.9148 165.351 51.9554 165.159 50.9961 165.159C50.4844 165.159 50.0367 165.159 49.525 165.223C49.0773 165.287 48.6936 165.351 48.2459 165.479C47.7982 165.607 47.4144 165.735 47.0307 165.927C46.583 166.119 46.1353 166.374 45.7516 166.694V165.991C45.7516 165.799 45.6876 165.671 45.5597 165.543C45.4318 165.415 45.3038 165.351 45.112 165.351H42.2978C42.106 165.351 41.9781 165.415 41.8501 165.543C41.7222 165.671 41.6583 165.799 41.6583 165.991V182.875C41.6583 183.067 41.7222 183.195 41.8501 183.323C41.9781 183.451 42.106 183.515 42.2978 183.515H45.2399C45.4318 183.515 45.5597 183.451 45.6876 183.323C45.8155 183.195 45.8795 183.003 45.8795 182.875V169.892C46.519 169.572 47.1586 169.252 47.7982 169.061C48.3738 168.869 48.9494 168.741 49.525 168.741C50.0367 168.741 50.5484 168.805 50.9961 168.933C51.3159 168.997 51.6356 169.252 51.8275 169.508C52.0194 169.828 52.1473 170.212 52.2113 170.596C52.2752 171.171 52.2752 171.747 52.2752 172.386V182.939C52.2752 183.131 52.3392 183.259 52.4671 183.387C52.595 183.515 52.7229 183.579 52.9148 183.579H55.9208C56.1127 183.579 56.2406 183.515 56.3685 183.387C56.4964 183.259 56.5604 183.067 56.5604 182.939V172.386C56.5604 171.427 56.4964 170.468 56.3045 169.508C56.2406 168.805 55.9847 167.973 55.537 167.27Z" fill="#015363"/>
<path d="M81.8237 172.131H61.9969C61.805 172.131 61.6771 172.195 61.5492 172.323C61.4213 172.451 61.3573 172.578 61.3573 172.77V175.137C61.3573 175.329 61.4213 175.457 61.5492 175.521C61.6771 175.648 61.805 175.712 61.9969 175.712H81.8237C82.2075 175.712 82.4633 175.52 82.4633 175.137V172.77C82.5272 172.451 82.2714 172.195 82.0156 172.195C81.9516 172.067 81.8877 172.067 81.8237 172.131Z" fill="#015363"/>
<path d="M102.418 161.002C101.522 160.426 100.499 159.979 99.4758 159.787C98.3246 159.531 97.1094 159.403 95.8942 159.403C94.679 159.403 92.5684 159.467 91.4812 159.531C90.3939 159.595 89.4345 159.723 88.5391 159.851C88.2833 159.851 88.0274 159.979 87.7716 160.107C87.5797 160.298 87.4518 160.554 87.5158 160.81V183.067C87.5158 183.387 87.8356 183.707 88.1554 183.707H91.4172C91.6091 183.707 91.737 183.643 91.8649 183.515C91.9928 183.387 92.0568 183.259 92.0568 183.067V174.689L93.4638 174.753C94.0395 174.753 95.5105 174.817 95.9582 174.817C97.1734 174.817 98.3246 174.689 99.5398 174.433C100.627 174.177 101.586 173.794 102.482 173.154C103.313 172.578 104.017 171.747 104.528 170.788C105.04 169.7 105.36 168.421 105.296 167.206V166.886C105.36 165.671 105.104 164.456 104.528 163.304C104.017 162.409 103.313 161.578 102.418 161.002ZM100.755 167.142C100.819 168.229 100.435 169.317 99.6677 170.084C98.9002 170.724 97.685 171.043 95.9582 171.043H94.4232H93.5917L92.7603 170.979H92.1847V163.241C92.3126 163.241 92.5045 163.241 92.7603 163.177H93.5278L94.3592 163.113C94.6151 163.113 95.8303 163.113 95.9582 163.113C97.2373 163.049 98.5165 163.304 99.6038 164.008C100.435 164.584 100.819 165.543 100.819 166.886V167.142H100.755Z" fill="#015363"/>
<path d="M117.192 165.224C116.425 165.224 115.721 165.352 115.018 165.544C114.122 165.799 113.291 166.183 112.587 166.759V166.055C112.587 165.672 112.331 165.416 111.948 165.416H109.134C108.942 165.416 108.814 165.48 108.686 165.608C108.558 165.736 108.494 165.863 108.494 166.055V182.94C108.494 183.132 108.558 183.26 108.686 183.388C108.814 183.516 108.942 183.58 109.134 183.58H112.076C112.267 183.58 112.395 183.516 112.523 183.388C112.651 183.26 112.715 183.068 112.715 182.94V169.957C113.355 169.573 114.058 169.317 114.826 169.125C115.593 168.933 116.425 168.806 117.192 168.806C117.576 168.806 117.832 168.55 117.832 168.166V165.863C117.832 165.544 117.512 165.224 117.192 165.224Z" fill="#015363"/>
<path d="M132.67 167.525C131.967 166.822 131.199 166.246 130.24 165.863C128.065 165.031 125.699 165.031 123.524 165.863C122.629 166.246 121.798 166.822 121.094 167.525C120.454 168.293 119.943 169.124 119.623 170.084C119.303 171.107 119.111 172.194 119.111 173.282V175.904C119.111 176.991 119.239 178.078 119.623 179.102C119.943 180.061 120.454 180.893 121.094 181.66C121.734 182.364 122.565 182.939 123.524 183.323C125.699 184.154 128.065 184.154 130.24 183.323C131.135 182.939 131.967 182.364 132.67 181.66C133.31 180.893 133.822 180.061 134.141 179.102C134.461 178.078 134.653 176.991 134.653 175.904V173.282C134.653 172.194 134.525 171.107 134.141 170.084C133.822 169.124 133.31 168.293 132.67 167.525ZM130.368 175.904C130.432 177.055 130.112 178.142 129.472 179.102C128.193 180.509 126.083 180.701 124.612 179.422C124.484 179.294 124.356 179.23 124.292 179.102C123.652 178.142 123.333 177.055 123.396 175.904V173.282C123.333 172.13 123.652 171.043 124.292 170.084C125.571 168.677 127.682 168.485 129.153 169.764C129.281 169.892 129.408 169.956 129.472 170.084C130.112 171.043 130.432 172.13 130.368 173.282V175.904Z" fill="#015363"/>
<path d="M147.444 159.147C147.316 159.083 147.188 159.019 147.06 158.955L146.164 158.763C145.845 158.699 145.461 158.699 145.141 158.699C144.374 158.699 143.606 158.763 142.839 158.891C142.199 159.019 141.56 159.275 141.048 159.723C140.536 160.17 140.152 160.682 139.897 161.322C139.577 162.153 139.449 162.984 139.513 163.88V165.479H136.635C136.443 165.479 136.315 165.543 136.187 165.671C136.059 165.799 135.995 165.927 135.995 166.118V167.589C135.995 167.781 136.059 167.909 136.187 167.973C136.315 168.101 136.443 168.165 136.635 168.165L139.513 168.613V182.939C139.513 183.323 139.833 183.579 140.216 183.643H143.158C143.35 183.643 143.478 183.579 143.606 183.451C143.734 183.323 143.798 183.131 143.798 183.003V168.677H146.868C147.06 168.677 147.188 168.613 147.316 168.485C147.444 168.357 147.508 168.229 147.508 168.037V166.118C147.508 165.735 147.252 165.479 146.868 165.479H143.734V163.88C143.67 163.304 143.798 162.793 144.118 162.281C144.566 161.961 145.141 161.833 145.653 161.897H147.124C147.252 161.897 147.38 161.833 147.444 161.769C147.572 161.641 147.635 161.513 147.572 161.322V159.403C147.635 159.339 147.572 159.211 147.444 159.147Z" fill="#015363"/>
<path d="M154.096 165.479H151.154C150.77 165.479 150.515 165.735 150.515 166.118V183.003C150.515 183.195 150.578 183.323 150.706 183.451C150.834 183.579 150.962 183.643 151.154 183.643H154.096C154.288 183.643 154.416 183.579 154.544 183.451C154.672 183.323 154.736 183.131 154.736 183.003V166.118C154.736 165.927 154.672 165.799 154.544 165.671C154.416 165.543 154.288 165.479 154.096 165.479Z" fill="#015363"/>
<path d="M154.224 158.891H151.09C150.898 158.891 150.77 158.955 150.642 159.083C150.515 159.211 150.451 159.339 150.451 159.531V162.345C150.451 162.537 150.515 162.665 150.642 162.793C150.77 162.921 150.962 162.985 151.09 162.985H154.224C154.416 162.985 154.544 162.921 154.672 162.793C154.8 162.665 154.864 162.537 154.864 162.345V159.531C154.864 159.211 154.544 158.891 154.224 158.891Z" fill="#015363"/>
<path d="M168.551 180.637H166.824C166.568 180.637 166.376 180.637 166.12 180.573C165.992 180.573 165.8 180.446 165.737 180.318C165.609 180.126 165.609 179.934 165.609 179.742C165.609 179.486 165.609 179.166 165.609 178.783V168.613H168.551C168.743 168.613 168.87 168.549 168.998 168.422C169.126 168.294 169.19 168.166 169.19 167.974V166.055C169.19 165.863 169.126 165.735 168.998 165.607C168.87 165.48 168.743 165.416 168.551 165.416H165.609V162.09C165.609 161.77 165.417 161.578 165.097 161.578H164.969L161.963 162.09C161.771 162.154 161.643 162.218 161.515 162.346C161.387 162.474 161.323 162.601 161.323 162.793V165.416H158.253C157.87 165.416 157.614 165.671 157.614 166.055V167.526C157.614 167.718 157.678 167.846 157.806 167.974C157.934 168.102 158.062 168.166 158.253 168.23L161.323 168.677V178.847C161.323 179.742 161.387 180.637 161.579 181.469C161.707 182.045 162.027 182.62 162.475 183.068C162.922 183.452 163.498 183.707 164.074 183.835C164.841 183.963 165.609 184.027 166.44 184.027C166.824 184.027 167.144 184.027 167.527 183.963C167.911 183.899 168.231 183.899 168.679 183.835C169.126 183.771 169.318 183.58 169.318 183.26V181.213C169.254 180.765 168.998 180.637 168.551 180.637Z" fill="#015363"/>
<path d="M195.476 173.666C195.093 173.09 194.645 172.578 194.133 172.067C193.43 171.491 192.726 170.979 191.959 170.532L187.418 168.357C186.97 168.101 186.522 167.845 186.139 167.59C185.819 167.398 185.563 167.142 185.307 166.886C185.115 166.694 184.987 166.438 184.923 166.183C184.86 165.927 184.796 165.671 184.796 165.479C184.732 164.839 185.051 164.2 185.563 163.816C186.331 163.368 187.226 163.113 188.185 163.241C189.209 163.241 190.935 163.304 192.023 163.304C193.11 163.304 194.133 163.432 195.221 163.56H195.285C195.413 163.56 195.604 163.496 195.668 163.432C195.796 163.305 195.796 163.177 195.796 162.985V160.618C195.796 160.49 195.732 160.298 195.668 160.235C195.54 160.107 195.413 160.043 195.221 160.043C194.965 159.979 194.581 159.915 194.069 159.851L192.47 159.659C191.895 159.595 191.319 159.531 190.68 159.531C190.104 159.531 188.825 159.467 188.313 159.467C187.034 159.467 185.755 159.595 184.54 159.915C183.644 160.171 182.749 160.618 182.045 161.194C181.406 161.706 180.958 162.409 180.702 163.177C180.446 163.944 180.255 164.776 180.319 165.607C180.319 166.183 180.382 166.694 180.51 167.206C180.638 167.718 180.83 168.229 181.15 168.741C181.47 169.253 181.854 169.764 182.301 170.148C182.877 170.66 183.516 171.107 184.156 171.491L189.081 174.049C189.592 174.369 190.04 174.689 190.424 174.881C190.744 175.073 190.999 175.329 191.255 175.584C191.447 175.776 191.639 176.032 191.703 176.288C191.767 176.544 191.767 176.863 191.767 177.119C191.831 177.951 191.511 178.718 190.999 179.294C190.488 179.806 189.464 180.061 188.057 180.061C187.738 180.061 186.714 180.061 186.203 180.061L184.476 179.997L182.877 179.933C182.365 179.933 181.917 179.87 181.598 179.806H181.534C181.342 179.806 181.214 179.869 181.086 179.997C180.958 180.125 180.894 180.253 180.894 180.445V182.748C180.894 182.875 180.958 183.067 181.086 183.195C181.214 183.323 181.342 183.387 181.534 183.451C182.365 183.643 183.197 183.771 184.028 183.899C184.923 184.027 186.65 184.027 187.866 184.027C189.273 184.091 190.616 183.835 191.895 183.451C192.854 183.131 193.75 182.62 194.517 181.916C195.157 181.341 195.604 180.573 195.924 179.742C196.18 178.974 196.372 178.143 196.372 177.311C196.372 176.672 196.308 176.096 196.18 175.456C195.988 174.753 195.732 174.177 195.476 173.666Z" fill="#015363"/>
<path d="M212.809 167.525C212.169 166.758 211.338 166.182 210.379 165.863C209.355 165.479 208.204 165.223 207.053 165.287C205.902 165.287 204.814 165.479 203.791 165.863C202.896 166.246 202 166.758 201.361 167.525C200.657 168.293 200.145 169.124 199.89 170.084C199.506 171.171 199.378 172.322 199.378 173.473V175.84C199.314 177.183 199.57 178.526 200.145 179.805C200.977 181.66 202.64 183.067 204.622 183.579C205.454 183.835 206.349 183.962 207.245 183.962C207.948 183.962 208.588 183.962 209.163 183.962C209.739 183.962 210.187 183.899 210.698 183.899C211.21 183.899 211.594 183.835 212.041 183.771C212.489 183.707 213.001 183.643 213.512 183.515C213.832 183.451 214.024 183.387 214.088 183.259C214.152 183.067 214.216 182.875 214.216 182.683V180.573C214.216 180.445 214.152 180.317 214.088 180.189C213.96 180.125 213.832 180.061 213.64 180.061H213.576C212.873 180.125 212.041 180.189 210.954 180.253C209.867 180.317 208.78 180.381 207.628 180.381C206.989 180.381 206.285 180.253 205.71 179.997C205.262 179.805 204.814 179.422 204.494 179.038C204.175 178.654 203.983 178.206 203.919 177.695C203.791 177.247 203.791 176.735 203.791 176.288V176.224H214.28C214.728 176.224 214.92 175.968 214.92 175.392V173.601C214.92 172.45 214.792 171.363 214.408 170.276C213.96 169.124 213.512 168.293 212.809 167.525ZM210.507 173.026H203.663V172.898C203.599 171.811 203.919 170.787 204.622 169.956C205.262 169.252 206.157 168.932 207.117 168.932C208.076 168.869 208.972 169.252 209.547 169.956C210.251 170.787 210.57 171.811 210.507 172.898V173.026Z" fill="#015363"/>
<path d="M229.373 165.672C228.862 165.544 228.286 165.416 227.774 165.352C226.943 165.288 226.048 165.224 225.216 165.224C224.193 165.224 223.234 165.352 222.274 165.736C221.379 166.055 220.611 166.567 219.972 167.207C219.268 167.91 218.756 168.742 218.437 169.637C218.053 170.724 217.861 171.875 217.861 173.091V176.097C217.861 177.248 218.053 178.463 218.437 179.55C218.756 180.446 219.332 181.277 219.972 181.981C220.611 182.62 221.443 183.132 222.274 183.452C223.234 183.772 224.193 183.963 225.216 183.963C226.048 183.963 226.943 183.899 227.774 183.836C228.35 183.772 228.862 183.708 229.373 183.516C229.565 183.516 229.757 183.388 229.949 183.26C230.077 183.068 230.077 182.876 230.077 182.684V180.574C230.077 180.446 230.013 180.318 229.949 180.19C229.821 180.126 229.693 180.062 229.501 180.062H229.437L228.542 180.19C228.286 180.254 227.966 180.254 227.647 180.254H226.623H225.28C224.896 180.254 224.513 180.19 224.129 180.062C223.745 179.934 223.425 179.742 223.17 179.422C222.85 179.039 222.594 178.591 222.466 178.143C222.274 177.44 222.146 176.736 222.21 176.033V173.027C222.21 172.323 222.274 171.62 222.466 170.98C222.594 170.532 222.85 170.085 223.17 169.701C223.425 169.381 223.809 169.189 224.129 169.061C224.513 168.933 224.896 168.869 225.28 168.869C225.792 168.869 226.24 168.869 226.623 168.869H227.647C227.966 168.869 228.222 168.869 228.542 168.933L229.437 169.061H229.501C229.629 169.061 229.821 168.997 229.949 168.933C230.077 168.869 230.141 168.678 230.077 168.55V166.567C230.077 166.375 230.077 166.183 229.949 165.991C229.757 165.8 229.565 165.736 229.373 165.672Z" fill="#015363"/>
<path d="M243.061 180.637H241.334C241.078 180.637 240.887 180.637 240.631 180.573C240.503 180.573 240.375 180.446 240.247 180.318C240.119 180.126 240.119 179.934 240.055 179.742C240.055 179.486 240.055 179.166 240.055 178.783V168.613H242.997C243.189 168.613 243.317 168.549 243.445 168.422C243.573 168.294 243.637 168.166 243.637 167.974V166.055C243.637 165.927 243.573 165.735 243.445 165.607C243.317 165.48 243.189 165.416 242.997 165.416H240.119V162.09C240.119 161.77 239.927 161.578 239.607 161.578H239.48L236.473 162.09C236.282 162.154 236.154 162.218 236.026 162.282C235.898 162.41 235.834 162.537 235.834 162.729V165.352H232.764C232.572 165.352 232.444 165.416 232.316 165.543C232.188 165.671 232.124 165.799 232.124 165.991V167.462C232.124 167.654 232.188 167.782 232.316 167.91C232.444 168.038 232.572 168.102 232.764 168.166L235.834 168.613V178.783C235.834 179.678 235.898 180.574 236.154 181.405C236.282 181.981 236.601 182.556 237.049 183.004C237.497 183.388 238.072 183.643 238.648 183.771C239.416 183.899 240.183 183.963 241.014 183.963C241.398 183.963 241.718 183.963 242.102 183.899C242.422 183.835 242.805 183.835 243.189 183.771C243.573 183.707 243.829 183.516 243.829 183.196V181.149C243.765 180.765 243.573 180.637 243.061 180.637Z" fill="#015363"/>
<path d="M259.306 167.525C258.602 166.822 257.835 166.246 256.876 165.863C254.701 165.031 252.335 165.031 250.16 165.863C249.265 166.246 248.433 166.822 247.73 167.525C247.09 168.293 246.578 169.124 246.259 170.084C245.939 171.107 245.747 172.194 245.747 173.282V175.904C245.747 176.991 245.939 178.078 246.259 179.102C246.578 180.061 247.09 180.893 247.73 181.66C248.369 182.364 249.201 182.939 250.16 183.323C252.335 184.154 254.701 184.154 256.876 183.323C257.771 182.939 258.602 182.364 259.306 181.66C259.946 180.893 260.457 180.061 260.777 179.102C261.097 178.078 261.289 176.991 261.289 175.904V173.282C261.289 172.194 261.097 171.107 260.777 170.084C260.457 169.124 259.946 168.293 259.306 167.525ZM257.003 175.904C257.067 177.055 256.748 178.142 256.108 179.102C254.893 180.509 252.718 180.701 251.247 179.422C251.119 179.294 250.991 179.23 250.928 179.102C250.288 178.142 249.968 177.055 250.032 175.904V173.282C249.968 172.13 250.288 171.043 250.928 170.084C252.143 168.677 254.317 168.485 255.788 169.764C255.916 169.892 256.044 169.956 256.108 170.084C256.748 171.043 257.067 172.13 257.003 173.282V175.904Z" fill="#015363"/>
<path d="M273.632 165.224C272.865 165.224 272.161 165.352 271.458 165.544C270.562 165.799 269.731 166.183 269.027 166.759V166.055C269.027 165.672 268.771 165.416 268.388 165.416H265.574C265.19 165.416 264.934 165.672 264.934 166.055V182.94C264.934 183.132 264.998 183.26 265.126 183.388C265.254 183.516 265.382 183.58 265.574 183.58H268.516C268.707 183.58 268.835 183.516 268.963 183.388C269.091 183.26 269.155 183.068 269.155 182.94V169.957C269.795 169.573 270.498 169.317 271.266 169.125C272.033 168.933 272.865 168.806 273.632 168.806C273.824 168.806 273.952 168.742 274.08 168.614C274.208 168.486 274.272 168.358 274.272 168.166V165.863C274.272 165.672 274.208 165.544 274.08 165.416C273.952 165.288 273.824 165.224 273.632 165.224Z" fill="#015363"/>
</svg>
