<svg width="27" height="27" viewBox="0 0 27 27" fill="none" xmlns="http://www.w3.org/2000/svg">
<path d="M17.397 24.4344C17.3325 24.4344 17.2572 24.4236 17.1927 24.4021C15.0313 23.7892 12.7624 23.7892 10.601 24.4021C10.2032 24.5097 9.78382 24.2838 9.67629 23.886C9.558 23.4881 9.79457 23.0687 10.1924 22.9612C12.6226 22.273 15.1818 22.273 17.612 22.9612C18.0099 23.0795 18.2465 23.4881 18.1282 23.886C18.0206 24.2193 17.7196 24.4344 17.397 24.4344Z" fill="black"/>
<path d="M21.6445 7.61662C20.5262 5.35848 18.3648 3.69176 15.8593 3.14336C13.2356 2.56269 10.5473 3.18637 8.4935 4.84234C6.42892 6.48755 5.25684 8.95 5.25684 11.5845C5.25684 14.3695 6.92356 17.2836 9.43977 18.9718V19.8643C9.42902 20.1654 9.41826 20.6278 9.78387 21.0042C10.1602 21.3913 10.7194 21.4343 11.1603 21.4343H16.6766C17.2572 21.4343 17.6981 21.273 17.9992 20.9719C18.4078 20.5525 18.3971 20.0149 18.3863 19.7245V18.9718C21.7197 16.7244 23.8166 11.9824 21.6445 7.61662ZM15.7411 13.2727L14.5905 15.2728C14.4399 15.5309 14.1711 15.6814 13.8915 15.6814C13.7517 15.6814 13.6119 15.6491 13.4937 15.5739C13.1066 15.3481 12.9775 14.8534 13.1926 14.4771L14.1066 12.8856H13.2033C12.6657 12.8856 12.2248 12.649 11.9882 12.2512C11.7517 11.8426 11.7732 11.3479 12.042 10.8748L13.1926 8.87473C13.4184 8.48762 13.913 8.35858 14.2894 8.57364C14.6765 8.79945 14.8055 9.2941 14.5905 9.67045L13.6765 11.2619H14.5797C15.1174 11.2619 15.5582 11.4985 15.7948 11.8963C16.0314 12.3049 16.0099 12.8103 15.7411 13.2727Z" fill="black"/>
</svg>
