<svg width="56" height="56" viewBox="0 0 56 56" fill="none" xmlns="http://www.w3.org/2000/svg">
<path d="M44.429 15.0632C42.0589 10.2773 37.4781 6.74487 32.168 5.58258C26.6073 4.35193 20.9098 5.67374 16.5569 9.1834C12.1812 12.6703 9.69714 17.8892 9.69714 23.4727C9.69714 29.3753 13.2296 35.5514 18.5624 39.1294V41.021C18.5396 41.6591 18.5169 42.6391 19.2917 43.4367C20.0894 44.2571 21.2744 44.3483 22.2088 44.3483H33.9001C35.1307 44.3483 36.0651 44.0065 36.7032 43.3683C37.5693 42.4795 37.5465 41.34 37.5237 40.7247V39.1294C44.5886 34.3663 49.0326 24.3159 44.429 15.0632Z" fill="#015363"/>
<path d="M35.4269 50.7069C35.2902 50.7069 35.1307 50.6841 34.9939 50.6385C30.4131 49.3395 25.6045 49.3395 21.0237 50.6385C20.1804 50.8664 19.2916 50.3878 19.0637 49.5446C18.813 48.7014 19.3144 47.8125 20.1577 47.5846C25.3082 46.1261 30.7322 46.1261 35.8827 47.5846C36.726 47.8353 37.2273 48.7014 36.9766 49.5446C36.7487 50.2511 36.1106 50.7069 35.4269 50.7069Z" fill="#015363"/>
</svg>
