<svg width="132" height="185" viewBox="0 0 132 185" fill="none" xmlns="http://www.w3.org/2000/svg">
<path d="M55.4688 73.8924L11.4021 42.1055C8.65194 40.1228 4.81448 40.6984 2.83179 43.4486C1.04098 45.879 1.36077 49.2687 3.47137 51.3793L33.3395 81.0556L2.57599 106.447C-0.0462722 108.621 -0.366068 112.459 1.80849 115.081C3.72721 117.383 6.98903 117.959 9.54733 116.488L54.6374 90.2655C55.8526 89.562 56.8759 88.6666 57.6434 87.5153C60.8413 83.1662 59.8819 77.0903 55.4688 73.8924Z" fill="#36B8A0"/>
<path d="M126.079 117.319L80.6049 90.457C78.942 89.4976 77.0232 88.986 75.1685 89.1139C69.7321 89.3697 66.5981 92.7595 66.5981 98.5796C66.5981 118.598 66.6621 158.252 66.6621 178.654C66.79 181.788 69.2204 184.347 72.3543 184.475C75.7441 184.666 78.6222 182.108 78.878 178.782L85.0819 114.441L120.77 128.32C123.904 129.535 127.486 128 128.701 124.866C129.788 122.052 128.701 118.854 126.079 117.319Z" fill="#015363"/>
<path d="M131.323 44.0236C130.427 40.7617 127.037 38.843 123.776 39.7384L84.8255 50.4833L78.8135 5.1374C78.2378 1.81161 75.04 -0.426901 71.7142 0.148717C68.7721 0.660377 66.5976 3.21868 66.6615 6.22468C66.7894 20.807 66.6615 49.9716 66.6615 64.5539C66.6615 72.4847 74.7202 75.6186 79.6449 73.3801L127.933 51.1868C130.683 49.9077 132.09 46.9017 131.323 44.0236Z" fill="#3C7FCC"/>
</svg>
